<svg width="24" height="24" viewBox="0 0 24 24" fill="none" xmlns="http://www.w3.org/2000/svg">
<path d="M3 20H3.5H3ZM3 21H2.5V21.5H3V21ZM4 6V6.5H20V6V5.5H4V6ZM20 6V6.5C20.2761 6.5 20.5 6.72386 20.5 7H21H21.5C21.5 6.17157 20.8284 5.5 20 5.5V6ZM21 7H20.5V18H21H21.5V7H21ZM18 21V20.5H4V21V21.5H18V21ZM3 20H3.5V7H3H2.5V20H3ZM3 7H3.5C3.5 6.72386 3.72386 6.5 4 6.5V6V5.5C3.17157 5.5 2.5 6.17157 2.5 7H3ZM21 18H20.5V19H21H21.5V18H21ZM19 21V20.5H18V21V21.5H19V21ZM4 21V20.5H3V21V21.5H4V21ZM3 21H3.5V20H3H2.5V21H3ZM21 19H20.5C20.5 19.8284 19.8284 20.5 19 20.5V21V21.5C20.3807 21.5 21.5 20.3807 21.5 19H21Z" fill="#FF6A39"/>
<path d="M8.97461 12.0042H14.9746" stroke="#FF6A39" stroke-linejoin="round"/>
<path d="M3 6.5L6.5 2.5H17.5L21 6.5" stroke="#FF6A39" stroke-linejoin="round"/>
</svg>
