<svg width="24" height="24" viewBox="0 0 24 24" fill="none" xmlns="http://www.w3.org/2000/svg">
<path d="M12 11C14.2091 11 16 9.20914 16 7C16 4.79086 14.2091 3 12 3C9.79086 3 8 4.79086 8 7C8 9.20914 9.79086 11 12 11Z" stroke="#FF375E" stroke-linejoin="round"/>
<path d="M3 20.4V21H19C20.1046 21 21 20.1046 21 19V18.4C21 18 21 17.0397 20.5641 16.184C20.1806 15.4314 19.5686 14.8195 18.816 14.436C17.9603 14 16.8402 14 14.6 14H9.4C7.1598 14 6.0397 14 5.18405 14.436C4.43139 14.8195 3.81947 15.4314 3.43598 16.184C3 17.0397 3 18.1598 3 20.4Z" stroke="#FF375E"/>
</svg>
