<svg width="117" height="111" viewBox="0 0 117 111" fill="none" xmlns="http://www.w3.org/2000/svg">
<path d="M38.108 17.5525L38.0626 14.323C41.2695 14.5383 42.4253 11.6488 42.3686 8.38528C42.278 3.69401 41.4168 1.65433 37.1448 1.31438C32.8728 0.974433 31.2864 3.78466 31.2184 7.47875C31.1957 8.75922 31.1504 9.97169 31.649 10.8782L28.9067 14.2664" fill="#E9E9EA"/>
<path d="M38.2552 17.5526L38.2098 14.3231H38.0625V14.4704C38.1758 14.4704 38.2892 14.4818 38.4025 14.4818C39.139 14.4818 39.7849 14.3118 40.3062 13.9945C41.0994 13.5299 41.6546 12.7593 42.0059 11.8188C42.3572 10.8896 42.5158 9.77916 42.5158 8.62334C42.5158 8.54402 42.5158 8.45336 42.5158 8.37404C42.4705 6.01708 42.2325 4.31734 41.4507 3.12753C41.0541 2.53829 40.5215 2.08502 39.8189 1.7564C39.1164 1.43912 38.2438 1.24648 37.1673 1.15583C36.9294 1.13317 36.7027 1.13318 36.4761 1.13318C34.5611 1.13318 33.2013 1.82439 32.3401 2.98021C31.4789 4.1247 31.105 5.71112 31.071 7.47884C31.071 7.79612 31.0596 8.10209 31.0596 8.40804C31.0596 9.34856 31.1276 10.2324 31.5129 10.9576L31.6375 10.8897L31.5242 10.799L28.782 14.1871L29.0086 14.3684L31.8075 10.901L31.7622 10.8103C31.4109 10.1644 31.3429 9.33722 31.3429 8.40804C31.3429 8.11342 31.3429 7.79614 31.3543 7.49018C31.3882 5.75646 31.7622 4.23801 32.5667 3.17285C33.3713 2.09635 34.6177 1.45046 36.4648 1.45046C36.6801 1.45046 36.8954 1.45045 37.1333 1.47311C38.1872 1.55243 39.0257 1.74508 39.6943 2.05103C40.6801 2.50429 41.292 3.20684 41.666 4.23801C42.0512 5.26919 42.1872 6.65163 42.2212 8.39669C42.2212 8.47602 42.2212 8.56667 42.2212 8.64599C42.2212 10.1531 41.9493 11.5469 41.3374 12.5554C41.0314 13.0653 40.6461 13.4619 40.1589 13.7452C39.6716 14.0285 39.0937 14.1871 38.4025 14.1871C38.3005 14.1871 38.1872 14.1871 38.0739 14.1871H37.9152L37.9719 17.5639H38.2665L38.2552 17.5526Z" fill="#502C84"/>
<path d="M53.7908 24.6235L59.7738 9.91516L68.9184 11.7849L63.3206 26.7198L53.7908 24.6235Z" fill="white"/>
<path d="M53.7908 24.6235L53.9268 24.6801L59.8645 10.0851L68.7258 11.8981L63.23 26.5498L53.8248 24.4875L53.7908 24.6235L53.9268 24.6801L53.7908 24.6235L53.7681 24.7708L63.4113 26.8898L69.1224 11.6828L59.6832 9.75647L53.5981 24.7368L53.7681 24.7708L53.7908 24.6235Z" fill="#502C84"/>
<path d="M54.3801 23.3203L63.876 25.292L63.944 25.0087L54.4368 23.037" fill="#502C84"/>
<path d="M58.4935 25.666C58.8334 24.6348 58.1649 23.3317 58.1649 23.3317L57.2244 26.0286L58.0289 28.6802L60.0459 29.3034L62.1309 26.4705L58.4822 25.666H58.4935Z" fill="#E9E9EA"/>
<path d="M58.4933 25.6659L58.6292 25.7113C58.7085 25.4846 58.7312 25.2467 58.7312 25.0087C58.7312 24.1022 58.2893 23.275 58.2893 23.2637C58.2666 23.207 58.21 23.1843 58.1533 23.1843C58.0966 23.1843 58.04 23.2296 58.0287 23.2863L57.0881 25.9832C57.0881 25.9832 57.0881 26.0399 57.0881 26.0739L57.8927 28.7255C57.8927 28.7255 57.938 28.8048 57.9947 28.8275L60.0117 29.4507C60.0683 29.4733 60.1363 29.4507 60.1703 29.394L62.2553 26.5611C62.2553 26.5611 62.2893 26.4705 62.278 26.4252C62.2553 26.3798 62.2213 26.3458 62.176 26.3345L58.5272 25.53L58.4933 25.6773L58.4593 25.8246L61.8814 26.5725L60.0004 29.1334L58.1533 28.5668L57.3828 26.0399L58.3006 23.3883L58.1646 23.343L58.0287 23.411V23.445C58.1193 23.6036 58.4366 24.3175 58.4366 25.0314C58.4366 25.2353 58.4139 25.4507 58.3459 25.6433C58.3346 25.6773 58.3459 25.7226 58.3573 25.7566C58.3686 25.7906 58.4139 25.8133 58.4479 25.8246L58.4819 25.6773L58.4933 25.6659Z" fill="#502C84"/>
<path d="M43.6831 33.9947L46.6293 40.9296C47.5925 43.2073 50.618 43.6719 52.2271 41.7908L61.8929 29.2921L57.5303 27.989L50.9013 36.363C50.9013 36.363 47.5812 30.3119 46.0741 23.8076" fill="white"/>
<path d="M43.5471 34.0513L46.4933 40.9862C47.0825 42.3573 48.3856 43.1052 49.7001 43.1052C50.6633 43.1052 51.6265 42.7086 52.329 41.8814L62.1308 29.2014L57.4622 27.8189L50.7653 36.2723L50.8786 36.3629L51.0032 36.295C51.0032 36.295 50.9466 36.2043 50.8559 36.023C50.1987 34.7879 47.5018 29.4507 46.1873 23.7736L45.904 23.8416C47.4225 30.3799 50.7426 36.4309 50.7426 36.4309L50.8446 36.6236L57.5529 28.1589L61.6209 29.3714L52.0911 41.7001C51.4452 42.4593 50.5613 42.8106 49.6775 42.8219C48.465 42.8219 47.2752 42.142 46.7426 40.8842L43.7964 33.9493L43.5244 34.0626L43.5471 34.0513Z" fill="#502C84"/>
<path d="M37.2806 101.236L36.9973 107.06L40.3855 106.834L40.6121 105.134L41.462 100.103L37.2806 101.236Z" fill="#502C84"/>
<path d="M37.2808 101.236H37.1335L36.8389 107.219L40.5216 106.97L40.7596 105.168L41.6435 99.9103L37.1335 101.123V101.236H37.2808L37.3148 101.383L41.2808 100.307L40.465 105.111L40.261 106.698L37.1448 106.902L37.4281 101.247L37.2808 101.236L37.3148 101.383L37.2808 101.236Z" fill="#502C84"/>
<path d="M36.5669 109.225C36.5669 109.225 35.7057 107.219 36.7369 106.086C36.8956 105.905 37.1902 105.882 37.3828 106.029L37.7114 106.267C38.2214 106.641 39.2072 106.596 39.7624 106.267L40.159 106.029C40.8389 105.621 41.7001 105.61 42.3914 105.984L45.4735 107.661L46.5047 107.956C49.1223 108.647 48.3858 110.358 48.3858 110.358H36.8956C36.3403 110.29 36.1817 109.78 36.4989 109.304L36.5556 109.214L36.5669 109.225Z" fill="white"/>
<path d="M36.5669 109.225L36.7029 109.168V109.134C36.6236 108.987 36.3743 108.296 36.3743 107.582C36.3743 107.083 36.4876 106.585 36.8502 106.199C36.9182 106.131 37.0088 106.097 37.0995 106.097C37.1675 106.097 37.2468 106.12 37.3035 106.165L37.6321 106.403C37.9154 106.607 38.312 106.698 38.6972 106.698C39.1052 106.698 39.5244 106.607 39.8417 106.415L40.2383 106.177C40.5669 105.984 40.9409 105.882 41.3148 105.882C41.6661 105.882 42.0174 105.961 42.3233 106.131L45.4168 107.808L46.4594 108.103C47.2752 108.318 47.7398 108.636 48.0004 108.942C48.2611 109.259 48.3291 109.565 48.3291 109.825C48.3291 109.973 48.3064 110.086 48.2837 110.177C48.2837 110.222 48.2611 110.256 48.2497 110.279V110.301L48.3857 110.358V110.211H36.8955V110.358L36.9182 110.211C36.7595 110.188 36.6576 110.131 36.5896 110.063C36.5216 109.995 36.4876 109.905 36.4876 109.791C36.4876 109.678 36.5329 109.531 36.6236 109.384L36.6802 109.293L36.7255 109.225L36.6915 109.157L36.5556 109.214L36.4309 109.134L36.3743 109.225C36.2496 109.406 36.1816 109.61 36.1816 109.791C36.1816 109.973 36.2383 110.143 36.3629 110.267C36.4876 110.392 36.6576 110.483 36.8615 110.505H45.1109H48.4537L48.4877 110.415C48.4877 110.415 48.5897 110.165 48.5897 109.825C48.5897 109.52 48.5104 109.123 48.1931 108.749C47.8871 108.375 47.3545 108.035 46.5047 107.808L46.4707 107.956L46.516 107.82L45.5075 107.525L42.4367 105.859C42.074 105.667 41.6774 105.565 41.2808 105.565C40.8502 105.565 40.431 105.678 40.0457 105.905L39.6491 106.143C39.3998 106.29 39.0259 106.381 38.6632 106.381C38.312 106.381 37.9833 106.301 37.768 106.143L37.4394 105.905C37.3261 105.825 37.1901 105.78 37.0655 105.78C36.8955 105.78 36.7255 105.848 36.6009 105.984C36.1816 106.449 36.0457 107.027 36.0457 107.57C36.0457 108.466 36.3969 109.27 36.3969 109.27L36.5329 109.214L36.5669 109.225Z" fill="#502C84"/>
<path d="M42.3572 105.961L41.564 107.276L41.9719 107.525L42.7764 106.211" fill="white"/>
<path d="M42.4365 106.018L41.6433 107.333L41.8926 107.48L42.6858 106.165" fill="#502C84"/>
<path d="M43.343 106.573L42.6631 107.707L43.0823 107.944L43.7622 106.811" fill="white"/>
<path d="M43.4225 106.619L42.7539 107.752L43.0032 107.899L43.6831 106.766" fill="#502C84"/>
<path d="M44.3289 107.174L43.7737 108.126L44.193 108.364L44.7482 107.412" fill="white"/>
<path d="M44.4196 107.219L43.853 108.171L44.1136 108.318L44.6689 107.367" fill="#502C84"/>
<path d="M36.4082 109.463H48.295V109.168H36.4082" fill="#502C84"/>
<path d="M27.003 101.236L26.7197 107.06L30.1079 106.834L30.3345 105.134L31.1844 100.103L27.003 101.236Z" fill="#502C84"/>
<path d="M27.003 101.236H26.8557L26.561 107.219L30.2438 106.97L30.4818 105.168L31.3656 99.9103L26.8557 101.123V101.236H27.003L27.037 101.383L31.003 100.307L30.1985 105.123L29.9832 106.698L26.8783 106.902L27.1503 101.247L27.003 101.236L27.037 101.383L27.003 101.236Z" fill="#502C84"/>
<path d="M26.2891 109.225C26.2891 109.225 25.4279 107.219 26.4591 106.086C26.6291 105.905 26.9123 105.882 27.105 106.029L27.4336 106.267C27.9435 106.641 28.9294 106.596 29.4846 106.267L29.8812 106.029C30.5611 105.621 31.4223 105.61 32.1135 105.984L35.1957 107.661L36.2269 107.956C38.8445 108.647 38.1079 110.358 38.1079 110.358H26.6177C26.0625 110.29 25.9038 109.78 26.2211 109.304L26.2778 109.214L26.2891 109.225Z" fill="white"/>
<path d="M26.2891 109.225L26.4251 109.168V109.134C26.3457 108.987 26.0964 108.296 26.0964 107.582C26.0964 107.083 26.2098 106.585 26.5724 106.199C26.6404 106.131 26.731 106.097 26.8217 106.097C26.8897 106.097 26.969 106.12 27.0256 106.165L27.3543 106.403C27.6375 106.607 28.0341 106.698 28.4194 106.698C28.8273 106.698 29.2466 106.607 29.5639 106.415L29.9605 106.177C30.2891 105.984 30.6631 105.882 31.037 105.882C31.3883 105.882 31.7396 105.961 32.0455 106.131L35.139 107.808L36.1815 108.103C36.9974 108.318 37.462 108.636 37.7226 108.942C37.9832 109.259 38.0512 109.565 38.0512 109.825C38.0512 109.973 38.0286 110.086 38.0059 110.177C38.0059 110.222 37.9832 110.256 37.9719 110.279V110.301L38.1079 110.358V110.211H26.6177V110.358L26.6404 110.211C26.4817 110.188 26.3797 110.131 26.3117 110.063C26.2437 109.995 26.2098 109.905 26.2098 109.791C26.2098 109.678 26.2551 109.531 26.3457 109.384L26.4024 109.293L26.4477 109.225L26.4137 109.157L26.2777 109.214L26.1531 109.134L26.0964 109.225C25.9718 109.406 25.9038 109.61 25.9038 109.791C25.9038 109.973 25.9605 110.143 26.0851 110.267C26.2098 110.392 26.3797 110.483 26.5837 110.505H34.8331H38.1759L38.2099 110.415C38.2099 110.415 38.3119 110.165 38.3119 109.825C38.3119 109.52 38.2325 109.123 37.9153 108.749C37.6093 108.375 37.0767 108.035 36.2268 107.808L36.1929 107.956L36.2382 107.82L35.2297 107.525L32.1588 105.859C31.7962 105.667 31.3996 105.565 31.003 105.565C30.5724 105.565 30.1531 105.678 29.7679 105.905L29.3713 106.143C29.122 106.29 28.748 106.381 28.3854 106.381C28.0341 106.381 27.7055 106.301 27.4902 106.143L27.1616 105.905C27.0483 105.825 26.9123 105.78 26.7877 105.78C26.6177 105.78 26.4477 105.848 26.3231 105.984C25.9038 106.449 25.7678 107.027 25.7678 107.57C25.7678 108.466 26.1191 109.27 26.1191 109.27L26.2551 109.214L26.2891 109.225Z" fill="#502C84"/>
<path d="M32.0796 105.961L31.2864 107.276L31.6943 107.525L32.4989 106.211" fill="white"/>
<path d="M32.1703 106.018L31.3657 107.333L31.615 107.48L32.4195 106.165" fill="#502C84"/>
<path d="M33.0769 106.573L32.397 107.707L32.8049 107.944L33.4848 106.811" fill="white"/>
<path d="M33.156 106.619L32.4761 107.752L32.7254 107.899L33.4053 106.766" fill="#502C84"/>
<path d="M34.0627 107.174L33.4961 108.126L33.9154 108.364L34.4706 107.412" fill="white"/>
<path d="M34.1417 107.219L33.5864 108.171L33.8357 108.318L34.391 107.367" fill="#502C84"/>
<path d="M26.1306 109.463H38.0174V109.168H26.1306" fill="#502C84"/>
<path d="M28.2836 44.8617L28.3062 46.9127L20.4421 105.168H47.5812L47.1506 49.587V49.247C47.0713 46.0742 46.72 24.4649 45.8475 21.8927C44.4764 17.8926 38.7426 17.9039 38.7426 17.9039H34.1307C34.1307 17.9039 28.5442 18.2552 26.2892 19.581C24.0456 20.9068 23.6943 38.0741 23.683 41.6889C23.683 41.6889 23.9549 44.1931 27.0258 44.9637" fill="white"/>
<path d="M28.1361 44.8617L28.1588 46.9013L20.2947 105.146L20.442 105.316H47.5811L47.7284 105.168L47.2978 49.5869H47.1505L47.1731 49.7342L47.2978 49.5869V49.2356L47.1505 49.0884V49.2356H47.2978C47.2525 47.6492 47.1505 41.4509 46.9465 35.3318C46.8445 32.2723 46.7199 29.2241 46.5612 26.7878C46.4819 25.564 46.3913 24.4989 46.3006 23.649C46.2099 22.7991 46.108 22.1759 45.9833 21.8359C45.632 20.8161 44.9975 20.0456 44.2609 19.4676C42.0286 17.7452 38.8104 17.7566 38.7425 17.7452H34.1305C34.1305 17.7452 32.7254 17.8359 31.037 18.0965C29.3486 18.3572 27.3769 18.7764 26.2211 19.4563C26.0511 19.5583 25.9038 19.7169 25.7678 19.9322C25.5185 20.3288 25.3032 20.9067 25.1106 21.6206C24.442 24.1362 24.0568 28.3969 23.8301 32.4196C23.6035 36.4423 23.5468 40.2044 23.5355 41.6888C23.5355 41.6888 23.6148 42.3687 24.0794 43.1166C24.544 43.8645 25.4165 44.7144 26.9916 45.111L27.0596 44.8277C25.5639 44.4537 24.7593 43.6605 24.3174 42.958C24.1021 42.6067 23.9774 42.2894 23.8981 42.0514C23.8641 41.9381 23.8415 41.8361 23.8301 41.7681C23.8301 41.7341 23.8301 41.7115 23.8188 41.6888V41.6662H23.6715L23.8188 41.6775C23.8188 39.8758 23.9094 34.6746 24.2834 29.7794C24.4647 27.3317 24.7253 24.9521 25.0653 23.1051C25.2352 22.1872 25.4392 21.394 25.6545 20.8048C25.7678 20.5102 25.8811 20.2609 25.9945 20.0796C26.1078 19.8869 26.2324 19.7623 26.3457 19.7056C27.4336 19.0597 29.3939 18.6291 31.0597 18.3798C31.8982 18.2552 32.6574 18.1645 33.224 18.1079C33.5073 18.0852 33.7339 18.0625 33.8812 18.0512C34.0399 18.0399 34.1192 18.0285 34.1192 18.0285H38.7311C38.7311 18.0285 40.1816 18.0399 41.7567 18.5385C42.5385 18.7878 43.3657 19.1504 44.0683 19.6943C44.7709 20.2382 45.3601 20.9634 45.7 21.9266C45.802 22.2212 45.904 22.8444 45.9947 23.683C46.3233 26.6292 46.5499 32.329 46.7085 37.6321C46.8672 42.9353 46.9578 47.8532 46.9918 49.247L47.1391 49.3943V49.247H46.9918V49.5869V49.5982H47.1391L47.1165 49.4509L46.9918 49.5982L47.4224 105.032H39.9096H29.3599H20.5893L28.4307 46.9467V46.924L28.4081 44.873H28.1135L28.1361 44.8617Z" fill="#502C84"/>
<path d="M41.8926 33.7454L44.4762 32.4309C44.4762 32.4309 45.2921 32.3969 44.6801 33.1221C44.6801 33.1221 43.7736 33.7114 43.3204 33.9493C42.8671 34.1873 42.4592 34.4026 42.4592 34.4026" fill="#E9E9EA"/>
<path d="M41.9605 33.8699L44.5441 32.5555L44.4762 32.4195V32.5668H44.4875C44.5101 32.5668 44.6121 32.5668 44.6801 32.5895C44.7141 32.6008 44.7368 32.6122 44.7481 32.6235V32.6688C44.7481 32.6688 44.7254 32.8274 44.5668 33.0088L44.6801 33.0994L44.6008 32.9748C44.6008 32.9748 44.3742 33.122 44.0909 33.3033C43.8076 33.4847 43.4676 33.6886 43.2523 33.8019C42.7991 34.0399 42.3911 34.2552 42.3911 34.2552L42.5271 34.5158C42.5271 34.5158 42.9237 34.3005 43.377 34.0626C43.8416 33.8133 44.7481 33.2241 44.7481 33.2241H44.7708L44.7821 33.1901C44.9521 32.9861 45.0427 32.8161 45.0427 32.6575C45.0427 32.5668 45.0087 32.4761 44.9521 32.4195C44.8614 32.3288 44.7594 32.3062 44.6801 32.2835C44.5895 32.2609 44.5215 32.2609 44.4875 32.2609H44.4648H44.4308L41.8132 33.5866L41.9492 33.8473L41.9605 33.8699Z" fill="#502C84"/>
<path d="M42.4931 34.3912C42.4931 34.3912 44.2722 33.394 45.2694 33.0541C45.6206 32.9294 45.8586 33.0994 45.7453 33.5186L42.9237 35.3204L39.4223 35.6603L36.8047 35.2524C36.8047 35.2524 38.5611 32.2722 40.6234 33.2807C40.6234 33.2807 42.4025 32.2949 42.7764 32.9068C42.7764 32.9068 42.9011 33.0881 42.7651 33.3147" fill="#E9E9EA"/>
<path d="M42.5614 34.5272C42.5614 34.5272 42.6747 34.4705 42.856 34.3686C43.3999 34.0739 44.5897 33.4507 45.3149 33.2014C45.3829 33.1787 45.4282 33.1674 45.4736 33.1674C45.5302 33.1674 45.5642 33.1787 45.5869 33.2014C45.6095 33.2241 45.6209 33.2581 45.6209 33.3261C45.6209 33.3714 45.6209 33.4167 45.5982 33.4847L45.7455 33.5187L45.6662 33.3941L42.8673 35.1731L39.4225 35.5131L36.8276 35.1051L36.8049 35.2524L36.9296 35.3317V35.3091C37.0089 35.1958 37.3488 34.6632 37.8587 34.1646C38.3687 33.666 39.0372 33.2127 39.7511 33.2127C40.0117 33.2127 40.2837 33.2694 40.5557 33.4054L40.6237 33.4394L40.6916 33.4054C40.6916 33.4054 40.703 33.4054 40.737 33.3827C40.839 33.3261 41.0996 33.1901 41.4055 33.0768C41.7115 32.9521 42.0628 32.8501 42.3121 32.8501C42.4027 32.8501 42.482 32.8615 42.5274 32.8841C42.584 32.9068 42.618 32.9408 42.6407 32.9748C42.6407 32.9748 42.6633 33.0314 42.6633 33.0768C42.6633 33.1108 42.6633 33.1561 42.618 33.2127L42.8673 33.3714C42.9353 33.2694 42.958 33.1674 42.958 33.0768C42.958 32.9181 42.89 32.8161 42.8786 32.8048L42.754 32.8955L42.8786 32.8161C42.822 32.7142 42.72 32.6462 42.618 32.6008C42.516 32.5555 42.4027 32.5442 42.2894 32.5442C41.9155 32.5442 41.4848 32.6915 41.1336 32.8388C40.7823 32.9861 40.5217 33.1334 40.5217 33.1334L40.5897 33.2581L40.6576 33.1221C40.3404 32.9634 40.0231 32.8955 39.7171 32.8955C39.2639 32.8955 38.8559 33.0428 38.482 33.2581C37.3715 33.904 36.6463 35.1391 36.6463 35.1504L36.533 35.3317L39.3772 35.7737L42.9353 35.4224L45.8362 33.5754V33.5187C45.8702 33.4394 45.8815 33.3601 45.8815 33.2921C45.8815 33.1674 45.8475 33.0428 45.7568 32.9635C45.6775 32.8728 45.5529 32.8388 45.4396 32.8388C45.3602 32.8388 45.2696 32.8615 45.1789 32.8841C44.669 33.0654 43.9778 33.4054 43.3999 33.6887C42.8333 33.9833 42.38 34.2326 42.38 34.2326L42.5274 34.4932L42.5614 34.5272Z" fill="#502C84"/>
<path d="M24.2947 43.1506C24.3967 43.3205 24.5213 43.4792 24.6686 43.6378C26.2324 45.3715 28.9293 45.4962 30.7197 43.9891L39.547 36.5896L37.3033 33.1788L30.3571 37.6547L30.6743 29.598" fill="white"/>
<path d="M24.1702 43.2299C24.2835 43.3999 24.4081 43.5699 24.5555 43.7398C25.428 44.703 26.6291 45.1789 27.8416 45.1789C28.8954 45.1789 29.9493 44.8163 30.8105 44.1024L39.6378 36.7029L39.6604 36.5103L37.4168 33.0995L37.2128 33.0541L30.5045 37.3828L30.8105 29.6094H30.5158L30.1986 37.6548L30.4252 37.7794L37.2468 33.3828L39.3431 36.5556L30.6178 43.8645C29.8133 44.533 28.8274 44.873 27.8416 44.873C26.7084 44.873 25.5866 44.4197 24.7707 43.5245C24.6348 43.3659 24.5101 43.2186 24.4195 43.0599L24.1702 43.2186V43.2299Z" fill="#502C84"/>
<path d="M32.4988 16.0907H39.4451L40.057 17.9717L32.1929 17.9944L32.4988 16.0907Z" fill="white"/>
<path d="M32.4987 16.0908V16.2381H39.3317L39.8529 17.8245L32.3628 17.8472L32.646 16.1135L32.4987 16.0908V16.2381V16.0908L32.3628 16.0681L32.0115 18.1418L40.2608 18.1191L39.547 15.9435H32.3741L32.3628 16.0681L32.4987 16.0908Z" fill="#502C84"/>
<path d="M37.1902 18.2551V32.4989H37.4848V18.2551" fill="#502C84"/>
<path d="M38.4478 20.3968H39.3656V20.1022H38.4478" fill="#502C84"/>
<path d="M38.4478 22.5385H39.3656V22.2439H38.4478" fill="#502C84"/>
<path d="M38.4478 24.6801H39.3656V24.3855H38.4478" fill="#502C84"/>
<path d="M38.4478 26.8218H39.3656V26.5272H38.4478" fill="#502C84"/>
<path d="M38.4478 28.9522H39.3656V28.6576H38.4478" fill="#502C84"/>
<path d="M59.196 11.2976L68.3859 13.2013L68.4426 12.918L59.2527 11.0143" fill="#502C84"/>
<path d="M42.2327 8.86121H40.4763C40.1817 8.87254 39.8984 9.03118 39.7511 9.29181L38.5386 11.2748L36.9862 10.0623C36.7482 9.86971 36.3856 10.017 36.3403 10.323C36.091 12.3173 37.0089 14.2324 38.2893 14.4817C38.2893 14.4817 42.7086 14.3797 42.2214 8.87253L42.2327 8.86121Z" fill="#512B83"/>
<path d="M31.4678 4.53261L34.006 11.2862L40.5897 4.27197L31.4678 4.53261Z" fill="white"/>
<path d="M31.4675 4.53269L31.3315 4.58934L33.8698 11.343L34.1191 11.3883L40.7027 4.37405L40.5894 4.12476L31.4675 4.38538L31.3315 4.58934L31.4675 4.53269L31.4789 4.67999L40.2495 4.4307L34.0625 11.0143L31.6035 4.48736L31.4675 4.53269L31.4789 4.67999L31.4675 4.53269Z" fill="#502C84"/>
<path d="M35.6263 17.8926L35.7963 4.43066L31.5243 4.65731C30.9577 8.98596 29.8245 11.2069 28.8954 13.3033C27.3543 16.8161 25.2919 20.0569 24.6007 24.2722C24.2834 26.2099 24.1587 27.819 24.2267 28.8502C24.2267 28.5782 24.4194 21.7906 29.6206 19.3317C31.8755 18.2665 34.2892 17.9945 35.6263 17.8926Z" fill="white"/>
<path d="M35.6264 17.8925H35.7737L35.9437 4.27197L31.3884 4.50994V4.63459C30.8105 8.94058 29.6887 11.1389 28.7595 13.2466C27.2184 16.748 25.156 20.0002 24.4535 24.2495C24.1929 25.8699 24.0569 27.2524 24.0569 28.2835C24.0569 28.4875 24.0569 28.6802 24.0682 28.8615H24.3628V28.8388C24.3628 28.6461 24.4308 26.8784 25.1221 24.8841C25.8246 22.8897 27.1504 20.6574 29.666 19.4676C31.887 18.4138 34.2893 18.1418 35.6264 18.0398H35.7624V17.8925H35.6151V17.7452C34.2666 17.8358 31.8303 18.1191 29.5527 19.1956C26.9351 20.4308 25.564 22.7424 24.8501 24.7821C24.1362 26.8218 24.0682 28.6008 24.0682 28.8275L24.2155 28.8388H24.3628C24.3628 28.6575 24.3515 28.4762 24.3515 28.2722C24.3515 27.2637 24.4761 25.8926 24.7368 24.2835C25.4167 20.1022 27.4677 16.884 29.0201 13.3599C29.938 11.2635 31.0938 9.00857 31.6604 4.66858L31.5131 4.64592V4.79323L35.6377 4.57793L35.4678 17.8812H35.6151L35.6264 17.8925Z" fill="#502C84"/>
<path d="M35.8079 5.33716L36.5104 8.54399L35.9098 9.14456L35.8079 5.33716Z" fill="#502C84"/>
<path d="M35.8077 5.33709L35.6604 5.37109L36.3516 8.49861L36.0457 8.80455L35.955 5.33709H35.8077L35.6604 5.37109L35.8077 5.33709H35.6604L35.7737 9.48445L36.6689 8.58925L35.9437 5.3031L35.6604 5.33709H35.8077Z" fill="#502C84"/>
<path d="M20.4421 110.63H53.7909V110.335H20.4421" fill="#502C84"/>
<path d="M41.7681 3.86411C41.8361 3.83011 43.1959 5.24656 43.1959 5.24656L39.1052 5.83581L40.703 4.09075L41.7681 3.85278V3.86411Z" fill="white"/>
<path d="M41.7679 3.86403V4.00002C41.7679 4.00002 41.8132 4.00002 41.8359 3.97735L41.7679 3.85271V3.98868V3.87537L41.7113 3.97735C41.7113 3.97735 41.7226 3.97735 41.7679 3.97735V3.86403L41.7113 3.96603L41.7226 3.94336V3.96603C41.7226 3.96603 41.7566 4.00001 41.8019 4.04534C41.9719 4.20398 42.3005 4.52126 42.5724 4.80455C42.8444 5.08784 43.0824 5.32581 43.0824 5.32581L43.1843 5.22383L43.1617 5.07652L39.4789 5.6091L40.7707 4.20398L41.8132 3.97735H41.8359L41.7679 3.84138L41.7339 3.69406L40.6234 3.93203L38.7197 6.00569L43.5016 5.31447L43.2977 5.11051C43.2977 5.11051 42.969 4.75923 42.6178 4.41928C42.4478 4.24931 42.2665 4.06801 42.1305 3.94336C42.0625 3.87537 41.9945 3.81871 41.9492 3.78472L41.8812 3.72806L41.8472 3.70539C41.8472 3.70539 41.8132 3.68274 41.7679 3.68274C41.7452 3.68274 41.7226 3.68273 41.6886 3.70539L41.7566 3.83004L41.7679 3.86403Z" fill="#502C84"/>
<path d="M31.8304 4.58924C31.7398 2.24361 33.9721 0.260592 36.8163 0.147277C39.6605 0.0339612 42.0515 1.83568 42.1421 4.18131L31.8191 4.60059L31.8304 4.58924Z" fill="white"/>
<path d="M31.8302 4.58927H31.9775C31.9775 4.58927 31.9775 4.48729 31.9775 4.44197C31.9775 3.35414 32.4987 2.34563 33.3713 1.58641C34.2438 0.827197 35.4563 0.339947 36.8274 0.283289C36.9067 0.283289 36.9974 0.283289 37.0767 0.283289C38.4138 0.283289 39.6263 0.713888 40.5102 1.41644C41.394 2.119 41.9606 3.0935 42.0059 4.18133H42.1532V4.03403L31.8302 4.45329V4.60061V4.74791L42.3005 4.32865V4.18133C42.2439 3.00285 41.632 1.94903 40.6914 1.20114C39.7509 0.453259 38.4705 0 37.0767 0C36.986 0 36.9067 0 36.8161 0C35.3883 0.0566578 34.1078 0.5779 33.1786 1.37111C32.2494 2.17565 31.6829 3.26349 31.6829 4.44197C31.6829 4.48729 31.6829 4.54394 31.6829 4.58927V4.73658H31.8302V4.58927Z" fill="#502C84"/>
<path d="M31.4108 4.58918L42.1531 4.16992H31.0369" fill="white"/>
<path d="M31.4108 4.7366L42.1531 4.31734V4.02271H31.0369V4.31734H34.5723L31.3995 4.44198L31.4108 4.7366Z" fill="#502C84"/>
<path d="M112.262 109.542L113.259 81.5419H111.264L111.922 109.542H112.262Z" fill="#502C84"/>
<path d="M112.262 109.542H112.409L113.406 81.3945H111.106L111.786 109.689H112.398L112.409 109.542H112.262V109.395H112.069L111.412 81.6892H113.112L112.114 109.531L112.262 109.542V109.395V109.542Z" fill="#502C84"/>
<path d="M113.259 81.5418L113.304 79.9894H91.627V81.5418" fill="#512B83"/>
<path d="M113.497 81.5532L113.542 80.0008L113.304 79.7515H91.6269L91.3889 79.9894V81.5418H91.8648V80.2387H113.055L113.021 81.5418L113.497 81.5532Z" fill="#512B83"/>
<path d="M96.964 101.191L97.2359 106.63L94.0631 106.415L93.8591 104.84L93.0659 100.137L96.964 101.191Z" fill="#502C84"/>
<path d="M96.9641 101.191L96.8168 101.202L97.0775 106.471L94.1992 106.279L93.9953 104.817L93.2474 100.341L96.9301 101.338L96.9641 101.191L96.8168 101.202L96.9641 101.191L97.0095 101.055L92.8848 99.933L93.712 104.862L93.9386 106.562L97.3834 106.789L97.1114 101.077L97.0095 101.055L96.9641 101.191Z" fill="#502C84"/>
<path d="M97.6326 108.658C97.6326 108.658 98.4371 106.789 97.474 105.735C97.3153 105.565 97.0547 105.542 96.8734 105.678L96.5674 105.893C96.0915 106.245 95.1737 106.199 94.6524 105.893L94.2785 105.667C93.6439 105.293 92.8393 105.282 92.1934 105.633L89.3152 107.197L88.3521 107.468C85.9044 108.114 86.5957 109.712 86.5957 109.712H97.3267C97.8366 109.644 97.9952 109.18 97.6893 108.726L97.6326 108.647V108.658Z" fill="#502C84"/>
<path d="M97.6324 108.658L97.8591 108.749C97.8591 108.749 98.1877 107.978 98.199 107.117C98.199 106.596 98.0744 106.018 97.6551 105.565C97.5191 105.417 97.3265 105.349 97.1452 105.349C96.9979 105.349 96.8619 105.395 96.7372 105.485L96.4313 105.701C96.2613 105.825 95.9667 105.905 95.6608 105.905C95.3321 105.905 95.0035 105.825 94.7882 105.701L94.4143 105.474C94.0517 105.259 93.6324 105.146 93.2131 105.146C92.8279 105.146 92.4426 105.236 92.0913 105.429L89.2358 106.981L88.3066 107.253L88.3746 107.48L88.3179 107.242C87.502 107.457 86.9921 107.786 86.6862 108.148C86.3802 108.511 86.2896 108.908 86.2896 109.214C86.2896 109.553 86.3915 109.791 86.4029 109.814L86.4709 109.961H97.3831C97.5984 109.939 97.7797 109.848 97.9157 109.712C98.0517 109.576 98.1197 109.383 98.1197 109.191C98.1197 108.987 98.0517 108.794 97.9271 108.602L97.8704 108.522L97.6664 108.658L97.4625 108.794L97.5191 108.874C97.5984 108.998 97.6324 109.112 97.6324 109.191C97.6324 109.27 97.6098 109.327 97.5644 109.372C97.5191 109.417 97.4511 109.463 97.3265 109.474L97.3605 109.712V109.474H86.6295V109.712L86.8561 109.621C86.8561 109.621 86.7881 109.44 86.7881 109.214C86.7881 108.998 86.8448 108.726 87.0714 108.454C87.2981 108.182 87.706 107.899 88.4652 107.706L89.451 107.423L92.3519 105.848C92.6239 105.701 92.9412 105.621 93.2471 105.621C93.5757 105.621 93.9157 105.712 94.199 105.882L94.5729 106.109C94.8902 106.29 95.2868 106.381 95.6947 106.381C96.08 106.381 96.454 106.301 96.7486 106.086L97.0545 105.871C97.0545 105.871 97.1339 105.825 97.1792 105.825C97.2358 105.825 97.2925 105.848 97.3378 105.893C97.6438 106.222 97.7458 106.664 97.7571 107.117C97.7571 107.491 97.6778 107.854 97.6098 108.126C97.5758 108.262 97.5304 108.375 97.5078 108.443C97.4965 108.477 97.4851 108.511 97.4738 108.534V108.556L97.4171 108.681L97.4851 108.794L97.6891 108.658H97.6324Z" fill="white"/>
<path d="M97.6326 108.658C97.6326 108.658 98.4371 106.789 97.474 105.735C97.3153 105.565 97.0547 105.542 96.8734 105.678L96.5674 105.893C96.0915 106.245 95.1737 106.199 94.6524 105.893L94.2785 105.667C93.6439 105.293 92.8393 105.282 92.1934 105.633L89.3152 107.197L88.3521 107.468C85.9044 108.114 86.5957 109.712 86.5957 109.712H97.3267C97.8366 109.644 97.9952 109.18 97.6893 108.726L97.6326 108.647V108.658Z" fill="white"/>
<path d="M97.6326 108.658L97.7686 108.715C97.7686 108.715 98.0972 107.967 98.0972 107.117C98.0972 106.607 97.9838 106.063 97.5759 105.633C97.4626 105.508 97.2926 105.44 97.134 105.44C97.0093 105.44 96.8847 105.474 96.7714 105.553L96.4654 105.769C96.2728 105.916 95.9555 105.984 95.6382 105.984C95.2983 105.984 94.947 105.905 94.7204 105.769L94.3464 105.542C93.9951 105.338 93.5985 105.225 93.1906 105.225C92.8167 105.225 92.4427 105.316 92.1141 105.497L89.2472 107.049L88.3067 107.321L88.352 107.457L88.318 107.31C87.5135 107.525 87.0262 107.842 86.7316 108.194C86.437 108.545 86.3577 108.908 86.3577 109.202C86.3577 109.531 86.4483 109.746 86.4596 109.757L86.4936 109.848H97.3379C97.5306 109.825 97.7006 109.746 97.8139 109.622C97.9272 109.497 97.9838 109.338 97.9838 109.168C97.9838 108.987 97.9272 108.806 97.8025 108.636L97.7459 108.556L97.6212 108.636L97.4966 108.715L97.5533 108.794C97.6439 108.93 97.6779 109.055 97.6779 109.168C97.6779 109.27 97.6439 109.35 97.5872 109.418C97.5306 109.486 97.4286 109.531 97.2926 109.554L97.3153 109.701V109.554H86.5843V109.701L86.7203 109.644C86.7203 109.644 86.641 109.452 86.641 109.202C86.641 108.964 86.6976 108.67 86.9469 108.386C87.1849 108.092 87.6155 107.808 88.386 107.604L89.3605 107.321L92.2501 105.746C92.5447 105.587 92.862 105.508 93.1906 105.508C93.5419 105.508 93.8931 105.599 94.1991 105.78L94.573 106.007C94.8677 106.177 95.2529 106.267 95.6382 106.267C96.0008 106.267 96.3748 106.188 96.6467 105.995L96.9527 105.78C96.9527 105.78 97.0773 105.723 97.134 105.723C97.2246 105.723 97.304 105.757 97.3606 105.814C97.6892 106.177 97.8025 106.641 97.8025 107.106C97.8025 107.491 97.7232 107.865 97.6552 108.137C97.6212 108.273 97.5759 108.386 97.5533 108.466C97.5419 108.5 97.5306 108.534 97.5193 108.556V108.59L97.4739 108.658L97.5193 108.726L97.6439 108.647L97.6326 108.658Z" fill="#502C84"/>
<path d="M91.8308 105.848L92.5674 107.072L92.9866 106.823L92.2387 105.599" fill="white"/>
<path d="M91.9104 105.803L92.6583 107.026L92.9076 106.879L92.1597 105.644" fill="#502C84"/>
<path d="M90.9016 106.415L91.5362 107.468L91.9555 107.219L91.3209 106.165" fill="white"/>
<path d="M90.981 106.358L91.6155 107.423L91.8648 107.265L91.2416 106.211" fill="#502C84"/>
<path d="M89.9836 106.97L90.5049 107.854L90.9128 107.616L90.3916 106.721" fill="white"/>
<path d="M90.0632 106.925L90.5845 107.808L90.8338 107.661L90.3125 106.777" fill="#502C84"/>
<path d="M97.6893 108.59H86.5957V108.885H97.6893" fill="#502C84"/>
<path d="M82.5275 100.397L82.7882 105.837L79.6267 105.621L79.4114 104.046L78.6182 99.3436L82.5275 100.397Z" fill="#502C84"/>
<path d="M82.5277 100.398L82.3804 100.409L82.641 105.678L79.7515 105.485L79.5588 104.024L78.811 99.5477L82.4937 100.545L82.5277 100.398L82.3804 100.409L82.5277 100.398L82.5617 100.262L78.437 99.1398L79.2642 104.069L79.4115 104.046L79.2642 104.058L79.4909 105.769L82.947 105.995L82.675 100.284L82.5617 100.262L82.5277 100.398Z" fill="#502C84"/>
<path d="M83.1963 107.865C83.1963 107.865 84.0009 105.995 83.0377 104.942C82.879 104.772 82.6184 104.749 82.4371 104.885L82.1312 105.1C81.6552 105.451 80.7374 105.406 80.2161 105.1L79.8422 104.874C79.2076 104.5 78.4031 104.488 77.7572 104.84L74.879 106.403L73.9158 106.675C71.4682 107.321 72.1594 108.919 72.1594 108.919H82.8904C83.4003 108.851 83.5589 108.386 83.253 107.933L83.1963 107.854V107.865Z" fill="#502C84"/>
<path d="M83.1962 107.865L83.4228 107.956C83.4228 107.956 83.7514 107.185 83.7628 106.324C83.7628 105.803 83.6381 105.225 83.2188 104.772C83.0828 104.624 82.8902 104.556 82.7089 104.556C82.5616 104.556 82.4256 104.602 82.301 104.692L81.995 104.908C81.825 105.032 81.5304 105.111 81.2245 105.111C80.8959 105.111 80.5672 105.032 80.3519 104.908L79.978 104.681C79.6154 104.466 79.1961 104.352 78.7769 104.352C78.3916 104.352 78.0063 104.443 77.655 104.636L74.7995 106.188L73.8703 106.46L73.9383 106.687L73.8816 106.449C73.0658 106.664 72.5558 106.993 72.2499 107.355C71.9439 107.718 71.8533 108.114 71.8533 108.42C71.8533 108.76 71.9553 108.998 71.9666 109.021L72.0346 109.168H82.9469C83.1622 109.146 83.3435 109.055 83.4795 108.908C83.6154 108.772 83.6834 108.579 83.6834 108.386C83.6834 108.182 83.6154 107.99 83.4908 107.797L83.4341 107.718L83.2302 107.854L83.0262 107.99L83.0828 108.069C83.1622 108.194 83.1962 108.307 83.1962 108.386C83.1962 108.466 83.1735 108.522 83.1282 108.568C83.0828 108.613 83.0149 108.658 82.8902 108.67L82.9242 108.908V108.67H72.1932V108.908L72.4198 108.817C72.4198 108.817 72.3519 108.636 72.3519 108.409C72.3519 108.194 72.4085 107.922 72.6352 107.65C72.8618 107.378 73.2697 107.095 74.0289 106.902L75.0148 106.619L77.9157 105.044C78.1876 104.896 78.5049 104.817 78.8108 104.817C79.1395 104.817 79.4794 104.908 79.7627 105.077L80.1366 105.304C80.4539 105.485 80.8505 105.576 81.2585 105.576C81.6437 105.576 82.0177 105.497 82.3123 105.281L82.6183 105.066C82.6183 105.066 82.6976 105.021 82.7429 105.021C82.7996 105.021 82.8562 105.044 82.9015 105.089C83.2075 105.417 83.3095 105.859 83.3208 106.313C83.3208 106.687 83.2415 107.049 83.1735 107.321C83.1395 107.457 83.0942 107.57 83.0715 107.638C83.0602 107.672 83.0489 107.706 83.0375 107.729V107.752L82.9809 107.876L83.0489 107.99L83.2528 107.854L83.1962 107.865Z" fill="white"/>
<path d="M83.1963 107.865C83.1963 107.865 84.0009 105.995 83.0377 104.942C82.879 104.772 82.6184 104.749 82.4371 104.885L82.1312 105.1C81.6552 105.451 80.7374 105.406 80.2161 105.1L79.8422 104.874C79.2076 104.5 78.4031 104.488 77.7572 104.84L74.879 106.403L73.9158 106.675C71.4682 107.321 72.1594 108.919 72.1594 108.919H82.8904C83.4003 108.851 83.5589 108.386 83.253 107.933L83.1963 107.854V107.865Z" fill="white"/>
<path d="M83.1963 107.865L83.3323 107.922C83.3323 107.922 83.6609 107.174 83.6609 106.324C83.6609 105.814 83.5476 105.27 83.1396 104.84C83.0263 104.715 82.8563 104.647 82.6977 104.647C82.5731 104.647 82.4484 104.681 82.3351 104.76L82.0292 104.976C81.8365 105.123 81.5192 105.191 81.2019 105.191C80.862 105.191 80.5107 105.112 80.2841 104.976L79.9101 104.749C79.5589 104.545 79.1623 104.432 78.7543 104.432C78.3804 104.432 78.0064 104.522 77.6778 104.704L74.8109 106.256L73.8704 106.528L73.9158 106.664L73.8818 106.517C73.0772 106.732 72.59 107.049 72.2953 107.401C72.0007 107.752 71.9214 108.114 71.9214 108.409C71.9214 108.738 72.0121 108.953 72.0234 108.964L72.0574 109.055H82.9017C83.0943 109.032 83.2643 108.953 83.3776 108.828C83.4909 108.704 83.5476 108.545 83.5476 108.375C83.5476 108.194 83.4909 108.012 83.3663 107.842L83.3096 107.763L83.185 107.842L83.0603 107.922L83.117 108.001C83.2076 108.137 83.2416 108.262 83.2416 108.375C83.2416 108.477 83.2076 108.556 83.151 108.624C83.0943 108.692 82.9923 108.738 82.8563 108.76L82.879 108.908V108.76H72.148V108.908L72.284 108.851C72.284 108.851 72.2047 108.658 72.2047 108.409C72.2047 108.171 72.2613 107.876 72.5106 107.593C72.7486 107.299 73.1792 107.015 73.9497 106.811L74.9243 106.528L77.8138 104.953C78.1084 104.794 78.4257 104.715 78.7543 104.715C79.1056 104.715 79.4569 104.806 79.7628 104.987L80.1368 105.214C80.4314 105.383 80.8167 105.474 81.2019 105.474C81.5645 105.474 81.9385 105.395 82.2104 105.202L82.5164 104.987C82.5164 104.987 82.6411 104.93 82.6977 104.93C82.7884 104.93 82.8677 104.964 82.9243 105.021C83.253 105.383 83.3663 105.848 83.3663 106.313C83.3663 106.698 83.2869 107.072 83.219 107.344C83.185 107.48 83.1396 107.593 83.117 107.672C83.1056 107.706 83.0943 107.74 83.083 107.763V107.797L83.0377 107.865L83.083 107.933L83.2076 107.854L83.1963 107.865Z" fill="#502C84"/>
<path d="M77.3833 105.055L78.1312 106.279L78.5391 106.029L77.8026 104.806" fill="white"/>
<path d="M77.4626 105.01L78.2105 106.233L78.4598 106.075L77.7233 104.851" fill="#502C84"/>
<path d="M76.4653 105.61L77.0999 106.675L77.5078 106.426L76.8733 105.372" fill="white"/>
<path d="M76.5447 105.565L77.1792 106.619L77.4285 106.471L76.794 105.417" fill="#502C84"/>
<path d="M75.5359 106.177L76.0571 107.061L76.4764 106.823L75.9552 105.927" fill="white"/>
<path d="M75.6155 106.131L76.1367 107.015L76.3974 106.868L75.8761 105.973" fill="#502C84"/>
<path d="M83.3323 107.797H72.25V108.092H83.3323" fill="#502C84"/>
<path d="M75.1508 55.3094L72.1479 56.7712C72.0119 56.8392 72.0572 57.0545 72.2159 57.0545C72.7825 57.0432 73.8816 56.8392 75.774 55.8987L75.1508 55.3208V55.3094Z" fill="white"/>
<path d="M75.1507 55.3094L75.0828 55.1734L72.0799 56.6351C71.9666 56.6918 71.9099 56.7938 71.9099 56.8958C71.9099 56.9638 71.9326 57.0431 71.9892 57.0997C72.0346 57.1564 72.1252 57.1904 72.2045 57.1904C72.8051 57.1791 73.9269 56.9638 75.8193 56.0119L76.0119 55.9213L75.1621 55.1281L75.0714 55.1734L75.1394 55.3094L75.0374 55.4113L75.6607 55.9893L75.7626 55.8873L75.6946 55.7513C73.8249 56.6918 72.7371 56.8844 72.2045 56.8958L75.2074 55.434L75.1394 55.298L75.1507 55.3094Z" fill="#502C84"/>
<path d="M81.8478 56.8845L80.658 56.3066L76.0687 53.4283L71.1281 54.3462C70.9921 54.3689 70.9582 54.5615 71.0941 54.6181C71.4227 54.7768 72.012 54.9581 72.9412 54.8901L74.5049 54.7655L78.4936 58.2443L82.5617 59.0148L81.8478 56.8845Z" fill="white"/>
<path d="M81.8477 56.8844L81.9157 56.7485L80.7372 56.1819L76.1026 53.281L71.1054 54.2102C71.0374 54.2215 70.9694 54.2669 70.9241 54.3235C70.8788 54.3802 70.8674 54.4368 70.8674 54.5048C70.8674 54.6068 70.9241 54.7201 71.0261 54.7654C71.3207 54.9127 71.808 55.0601 72.5218 55.0601C72.6578 55.0601 72.8051 55.0601 72.9524 55.0374L74.5162 54.9128V54.7654L74.4029 54.8788L78.4256 58.3915L82.7769 59.2074L81.961 56.7825L81.9044 56.7598L81.8364 56.8958L81.7004 56.9411L82.335 58.8335L78.5502 58.1196L74.5389 54.6181H74.4822C74.4822 54.6181 74.4822 54.6182 72.9184 54.7541C72.7711 54.7655 72.6352 54.7768 72.5105 54.7768C71.8419 54.7768 71.4 54.6295 71.1507 54.5048L76.0346 53.5983L80.5899 56.4539L81.7797 57.0317L81.8477 56.8958V56.8844Z" fill="#502C84"/>
<path d="M74.5049 54.7654L71.468 56.1365C71.3321 56.2045 71.3661 56.4198 71.5247 56.4198C72.0913 56.4198 73.2018 56.2611 75.1168 55.366L74.5162 54.7654H74.5049Z" fill="white"/>
<path d="M74.5049 54.7653L74.4483 54.6293L71.4114 56.0004C71.2981 56.0458 71.2415 56.1704 71.2415 56.2724C71.2415 56.3404 71.2641 56.4084 71.3208 56.465C71.3661 56.5217 71.4454 56.5557 71.5361 56.5557H71.5587C72.1593 56.5557 73.2811 56.3744 75.1848 55.4905L75.3775 55.3999L74.5503 54.584L74.4596 54.6293L74.5163 54.7653L74.4143 54.8673L75.0149 55.4678L75.1168 55.3659L75.0602 55.2299C73.1791 56.1024 72.1027 56.2724 71.5587 56.2724H71.5361L74.5729 54.9013L74.5163 54.7653H74.5049Z" fill="#502C84"/>
<path d="M80.8054 65.2358L78.2558 67.4001C78.1425 67.5021 78.2331 67.6948 78.3805 67.6494C78.9244 67.5021 79.9442 67.0375 81.542 65.6438L80.7941 65.2358H80.8054Z" fill="white"/>
<path d="M80.8052 65.2357L80.7146 65.1224L78.165 67.2867C78.097 67.3434 78.063 67.434 78.063 67.5133C78.063 67.5926 78.097 67.6606 78.1423 67.7173C78.1876 67.7739 78.267 67.8079 78.3576 67.8079C78.3803 67.8079 78.4143 67.8079 78.4369 67.8079C79.0148 67.6493 80.046 67.1734 81.6551 65.7796L81.8137 65.6436L80.7939 65.077L80.7146 65.145L80.8052 65.2583L80.7372 65.383L81.4851 65.7909L81.5531 65.6663L81.4625 65.553C79.876 66.9241 78.8789 67.3773 78.3576 67.5246L80.9072 65.3603L80.8165 65.247L80.8052 65.2357Z" fill="#502C84"/>
<path d="M87.6722 65.1112L86.3804 64.8506L81.2246 63.1962L76.658 65.3039C76.5333 65.3605 76.5446 65.5531 76.692 65.5758C77.0432 65.6551 77.6665 65.6778 78.5503 65.3831L80.0348 64.8733L84.76 67.2642L88.896 67.0036L87.6722 65.1112Z" fill="white"/>
<path d="M87.6721 65.1111L87.706 64.9638L86.4256 64.7032L81.2131 63.0261L76.6011 65.1565C76.4878 65.2018 76.4312 65.3151 76.4312 65.4284C76.4312 65.4851 76.4538 65.5531 76.4878 65.6097C76.5218 65.6664 76.5898 65.7004 76.6578 65.723C76.8051 65.757 76.9864 65.7797 77.2017 65.7797C77.5643 65.7797 78.0289 65.723 78.5955 65.5304C79.3433 65.2811 79.706 65.1451 79.8986 65.0885L80.0799 65.0205L80.0346 64.8845L79.9666 65.0205L84.7258 67.4341L89.1452 67.1621L87.7514 65.0091H87.6947L87.6607 65.1451L87.5361 65.2244L88.6239 66.9015L84.7825 67.1395L80.0346 64.7372L79.9779 64.7599L78.4935 65.2698C77.9609 65.4511 77.5303 65.5077 77.2017 65.5077C76.9977 65.5077 76.8391 65.4851 76.7144 65.4624L81.2244 63.3774L86.3349 65.0205L87.6381 65.2811L87.6721 65.1338V65.1111Z" fill="#502C84"/>
<path d="M80.0347 64.8732L77.4285 66.9582C77.3038 67.0602 77.3945 67.2528 77.5531 67.2188C78.1084 67.0828 79.1396 66.6522 80.7713 65.3151L80.0347 64.8845V64.8732Z" fill="white"/>
<path d="M80.0346 64.8731L79.9439 64.7598L77.3377 66.8448C77.2584 66.9014 77.2244 66.9921 77.2244 67.0714C77.2244 67.1507 77.247 67.2187 77.3037 67.2754C77.349 67.332 77.4283 67.366 77.519 67.366H77.587C78.1649 67.2187 79.2187 66.7654 80.8618 65.417L81.0204 65.281L80.0233 64.6918L79.9439 64.7598L80.0346 64.8731L79.9553 64.9977L80.6918 65.4283L80.7711 65.3037L80.6805 65.1904C79.0601 66.5162 78.0402 66.9354 77.519 67.0714L80.1252 64.9864L80.0346 64.8731Z" fill="#502C84"/>
<path d="M87.8533 88.5789L86.8335 105.599L102.244 104.318L97.1565 80.0349H105.757C112.148 80.0349 116.885 74.0858 115.434 67.8535L111.536 51.0601C110.743 47.6266 107.684 45.2017 104.159 45.2017H102.244" fill="#E9E9EA"/>
<path d="M87.7062 88.5675L86.675 105.757L102.426 104.443L97.338 80.1822H105.757C108.602 80.1822 111.129 79.015 112.942 77.1793C114.755 75.3436 115.854 72.828 115.854 70.1198C115.854 69.3605 115.763 68.59 115.593 67.8195L111.695 51.0261C110.879 47.5246 107.774 45.0543 104.182 45.0543H102.267V45.349H104.182C107.638 45.349 110.63 47.7286 111.412 51.0941L115.31 67.8874C115.48 68.6353 115.571 69.3832 115.571 70.1198C115.571 72.7487 114.505 75.1849 112.749 76.9753C110.993 78.7657 108.545 79.8876 105.78 79.8876H96.9981L102.086 104.182L87.0037 105.44L88.0122 88.5902L87.7176 88.5675H87.7062Z" fill="#502C84"/>
<path d="M86.7201 104.137L75.5359 103.265L80.0119 77.0433C81.0657 72.9979 84.7145 70.165 88.8958 70.165L98.6863 69.8477L99.5021 63.8647L97.9157 58.4255C97.9157 58.3576 97.8137 58.3349 97.7911 58.4142L97.3718 62.4029C97.2358 63.6494 96.7032 64.8279 95.7741 65.6551C94.267 67.0035 92.0007 67.4114 90.0969 66.301C89.995 66.2443 89.9043 66.1877 89.8023 66.1197L78.1648 58.5049L80.1138 55.808L92.9525 60.8165L93.6097 52.3518C93.8477 49.3263 95.9554 46.6974 98.9242 46.0175C99.0602 45.9835 99.1849 45.9608 99.3208 45.9382L99.4342 45.9155L104.193 45.1676" fill="#E9E9EA"/>
<path d="M86.7318 103.99L75.7062 103.128L80.1595 77.0659L80.0122 77.0432L80.1595 77.0772C81.1907 73.0885 84.7941 70.3123 88.9075 70.3123L98.8226 69.9836L99.6498 63.842L98.052 58.3801L97.916 58.4255H98.0634C98.0634 58.3688 98.0407 58.3008 97.9954 58.2668C97.95 58.2328 97.9047 58.2102 97.8594 58.2102C97.8141 58.2102 97.7801 58.2215 97.7347 58.2442C97.7008 58.2668 97.6667 58.3122 97.6554 58.3575L97.2362 62.3689C97.1115 63.5813 96.5789 64.7258 95.6837 65.5303C94.7999 66.3236 93.644 66.7768 92.4656 66.7768C91.695 66.7768 90.9131 66.5842 90.1879 66.1536C90.0859 66.0969 89.9953 66.0403 89.9046 65.9723L78.4031 58.4481L80.1935 55.9665L93.1115 61.0091L93.78 52.3517C94.0067 49.3829 96.0803 46.8106 98.9812 46.1534C99.1059 46.1194 99.2418 46.0967 99.3665 46.0741L99.4798 46.0514L104.239 45.3035L104.194 45.0089L99.4345 45.7568L99.3212 45.7794C99.1852 45.8021 99.0492 45.8248 98.9132 45.8588C95.8877 46.55 93.7234 49.2242 93.4854 52.3177L92.8508 60.5785L80.0915 55.6039L77.9838 58.5161L89.746 66.2102C89.848 66.2782 89.95 66.3349 90.0519 66.4029C90.8225 66.8562 91.661 67.0601 92.4769 67.0601C93.7347 67.0601 94.9472 66.5728 95.8877 65.7343C96.8509 64.8731 97.4061 63.6606 97.5421 62.3802L97.9614 58.3915H97.8141L97.9614 58.4141L97.882 58.3915L97.9274 58.4595L97.9614 58.4141L97.882 58.3915V58.4821H97.9274L97.882 58.3915V58.4821V58.4028L97.8254 58.4595L97.882 58.4821V58.4028L97.8254 58.4595L97.882 58.3915H97.7914L97.8254 58.4595L97.882 58.3915H97.7914V58.4141L99.3778 63.842L98.5846 69.6777L88.9188 69.995C84.6694 69.995 80.9527 72.8619 79.8875 76.9752L75.3889 103.366L86.7431 104.25L86.7658 103.956L86.7318 103.99Z" fill="#502C84"/>
<path d="M97.7802 58.4142L99.4912 63.8647L99.4119 64.4426H96.7263L96.9416 63.8307C97.1796 63.1394 97.3496 62.4255 97.4289 61.7003L97.7915 58.4255L97.7802 58.4142Z" fill="white"/>
<path d="M97.7799 58.4142L97.6439 58.4595L99.3437 63.876L99.287 64.2953H96.9414L97.0887 63.876C97.338 63.1734 97.4966 62.4482 97.5759 61.7117L97.9385 58.4369H97.7912L97.6553 58.4595L97.7912 58.4142H97.6439L97.2813 61.6777C97.202 62.3916 97.0434 63.0941 96.8054 63.774L96.5901 64.3859L96.7261 64.5786H99.4117L99.559 64.4539L99.6383 63.876V63.808L97.9159 58.3575L97.6326 58.3802H97.7799V58.4142Z" fill="#502C84"/>
<path d="M102.256 104.307L86.8335 105.599L87.8533 88.5787" fill="#E9E9EA"/>
<path d="M102.245 104.171L86.9922 105.429L88.0007 88.5902L87.7061 88.5675L86.6863 105.757L102.267 104.454L102.245 104.171Z" fill="#502C84"/>
<path d="M102.086 57.0205L100.953 64.2047L101.247 64.25L102.369 57.0658" fill="#502C84"/>
<path d="M113.327 79.9894H110.177L106.347 67.6493C104.534 61.8249 110.913 55.4792 116.59 55.4792V64.8731H111.299C110.324 64.8731 109.61 65.8136 109.882 66.7542" fill="#512B83"/>
<path d="M113.327 79.7515H110.358L106.585 67.5814C106.381 66.9128 106.279 66.2443 106.279 65.5757C106.279 63.0828 107.627 60.6125 109.599 58.7654C111.57 56.9184 114.165 55.7172 116.59 55.7172V55.4793H116.352V64.6352H111.31C110.823 64.6352 110.392 64.8392 110.086 65.1451C109.78 65.4624 109.599 65.8817 109.599 66.3462C109.599 66.5049 109.621 66.6635 109.667 66.8222L110.131 66.6862C110.097 66.5729 110.086 66.4596 110.086 66.3462C110.086 66.0176 110.222 65.7117 110.437 65.4851C110.664 65.2584 110.97 65.1111 111.321 65.1111H116.613L116.851 64.8732V55.4793L116.613 55.2413C114.029 55.2413 111.344 56.5105 109.293 58.4142C107.242 60.3292 105.814 62.9015 105.814 65.5757C105.814 66.2896 105.916 67.0148 106.143 67.7174L109.973 80.0574L110.199 80.2274H113.349V79.7402L113.327 79.7515Z" fill="#512B83"/>
<path d="M109.485 56.1479L107.094 65.3379C106.313 68.3407 103.525 70.3577 100.431 70.1764L86.301 69.3152L86.9129 64.9752L101.123 64.2274C101.123 64.2274 102.165 64.046 103.162 64.5446" fill="#E9E9EA"/>
<path d="M109.338 56.1025L106.947 65.2924C106.211 68.0913 103.684 70.029 100.817 70.029C100.692 70.029 100.556 70.029 100.431 70.0177L86.4597 69.1678L87.0263 65.0997L101.123 64.3519C101.157 64.3519 101.327 64.3179 101.565 64.3179C101.95 64.3179 102.517 64.3745 103.06 64.6578L103.196 64.3972C102.596 64.0912 101.973 64.0233 101.565 64.0233C101.27 64.0233 101.066 64.0573 101.066 64.0573L101.089 64.2046V64.0573L86.7543 64.8164L86.1084 69.4284L100.397 70.2896C100.533 70.2896 100.669 70.301 100.805 70.301C103.808 70.301 106.449 68.2726 107.219 65.3377L109.61 56.1478L109.327 56.0685L109.338 56.1025Z" fill="#502C84"/>
<path d="M107.956 79.8761L97.78 81.2132L97.5647 80.318L107.956 79.8761Z" fill="#44256F"/>
<path d="M107.956 79.8761L107.933 79.6382L97.9614 80.9526L97.8707 80.5447L107.967 80.1141L107.956 79.8761L107.933 79.6382L107.956 79.8761V79.6382L97.2588 80.0914L97.5987 81.4852L107.99 80.1141L107.956 79.6382V79.8761Z" fill="#44256F"/>
<path d="M100.25 42.1194C100.25 42.1194 97.3835 42.4027 96.8622 39.7058C96.341 37.0089 96.1257 35.5471 98.256 32.0229C98.256 32.0229 99.2872 32.7369 99.7518 33.3261C100.216 33.9153 100.998 35.5471 101.384 35.989C101.757 36.4423 102.687 36.9975 102.687 36.9975C102.687 36.9975 102.981 38.6859 100.262 42.1081L100.25 42.1194Z" fill="white"/>
<path d="M100.25 42.1194V41.9721H100.228C100.205 41.9721 100.126 41.9721 100.024 41.9721C99.695 41.9721 99.0264 41.9268 98.4145 41.6095C97.7913 41.2922 97.2134 40.7369 97.0094 39.6604C96.8168 38.6406 96.6581 37.8134 96.6581 36.9862C96.6581 35.6264 97.0661 34.2666 98.3805 32.091L98.2559 32.0116L98.1766 32.1363C98.1766 32.1363 98.2446 32.1816 98.3465 32.2496C98.6525 32.4762 99.3211 32.9861 99.6497 33.4054C99.865 33.6887 100.182 34.2326 100.488 34.7765C100.636 35.0485 100.783 35.3091 100.919 35.5357C101.055 35.7624 101.179 35.955 101.281 36.0797C101.485 36.329 101.814 36.5782 102.097 36.7822C102.381 36.9862 102.607 37.1221 102.619 37.1221L102.698 36.9975L102.551 37.0202C102.551 37.0202 102.551 37.0769 102.551 37.1562C102.551 37.6094 102.369 39.2185 100.148 42.0174L100.262 42.1081L100.375 42.1987C102.63 39.3658 102.845 37.6888 102.845 37.1562C102.845 37.0429 102.845 36.9749 102.834 36.9749L102.766 36.8729C102.766 36.8729 102.709 36.8389 102.619 36.7822C102.483 36.6916 102.267 36.5556 102.052 36.3856C101.837 36.227 101.621 36.0457 101.497 35.887C101.417 35.785 101.293 35.6037 101.157 35.3884C100.953 35.0598 100.726 34.6292 100.5 34.2326C100.273 33.836 100.058 33.4621 99.865 33.2241C99.6157 32.9068 99.2417 32.5782 98.9131 32.3289C98.5958 32.0683 98.3352 31.8983 98.3352 31.8983L98.1312 31.9437C96.7941 34.142 96.3635 35.5697 96.3635 36.9975C96.3635 37.8587 96.5222 38.7086 96.7148 39.7284C96.9414 40.8842 97.5987 41.5415 98.2786 41.8814C98.9585 42.2214 99.661 42.2667 100.024 42.2667C100.171 42.2667 100.262 42.2667 100.262 42.2667L100.364 42.21L100.25 42.1194Z" fill="#502C84"/>
<path d="M101.225 31.0031C101.225 31.0031 99.6948 30.6519 98.2444 32.0343C98.2444 32.0343 99.9781 33.0768 100.794 34.9692C101.61 36.8616 102.664 37.0089 102.664 37.0089C102.664 37.0089 103.468 35.989 101.213 31.0031H101.225Z" fill="white"/>
<path d="M101.225 31.003L101.259 30.8557C101.259 30.8557 101.066 30.8104 100.772 30.8104C100.182 30.8104 99.1398 30.969 98.1426 31.9209L98.1652 32.1475H98.1879C98.3692 32.2722 99.9216 33.292 100.67 35.0144C101.089 35.9776 101.565 36.5102 101.961 36.8048C102.347 37.0994 102.641 37.1334 102.664 37.1448L102.8 37.0881C102.8 37.0881 102.97 36.8388 102.97 36.2496C102.97 35.4224 102.687 33.8473 101.372 30.9351L101.27 30.8557L101.236 31.003L101.1 31.0597C102.403 33.9493 102.675 35.4904 102.675 36.2609C102.675 36.5329 102.641 36.7028 102.607 36.8048C102.596 36.8501 102.573 36.8841 102.573 36.9068V36.9181L102.653 36.9748L102.585 36.9181L102.664 36.9748L102.596 36.9181L102.709 37.0088L102.732 36.8615C102.732 36.8615 102.483 36.8161 102.143 36.5555C101.803 36.2949 101.361 35.8076 100.975 34.9124C100.137 32.9634 98.3692 31.9096 98.3579 31.9096L98.2786 32.0342L98.3805 32.1362C99.3097 31.2523 100.262 31.1164 100.806 31.1164C100.941 31.1164 101.055 31.1164 101.123 31.139C101.157 31.139 101.191 31.139 101.202 31.1504H101.225L101.259 31.003H101.225Z" fill="#502C84"/>
<path d="M102.607 48.873C102.607 48.873 99.2871 50.0968 96.5789 46.924C96.5789 46.924 96.6015 46.4481 97.2361 46.2101C97.8707 45.9835 99.7177 43.5585 99.865 42.5953C99.865 42.5953 101.01 43.9211 101.417 45.1563C101.837 46.3914 102.619 48.8617 102.619 48.8617L102.607 48.873Z" fill="white"/>
<path d="M102.607 48.873L102.562 48.737C102.505 48.7597 101.905 48.9636 101.055 48.9636C99.8764 48.9636 98.1993 48.5897 96.7036 46.8446L96.5902 46.9353H96.7376C96.7376 46.9353 96.7376 46.9126 96.7489 46.8786C96.7829 46.7653 96.8849 46.516 97.2928 46.3574C97.3948 46.3234 97.5081 46.2441 97.6214 46.1534C98.0294 45.8248 98.5846 45.1676 99.0605 44.4877C99.2985 44.1477 99.5138 43.7965 99.6838 43.4792C99.8537 43.1619 99.9671 42.8673 100.012 42.6293L99.8651 42.6067L99.7518 42.6973C99.7518 42.6973 99.7631 42.7199 99.7971 42.7539C100.012 43.0146 100.93 44.1704 101.282 45.2129C101.485 45.8248 101.791 46.754 102.029 47.5245C102.154 47.9098 102.267 48.2611 102.347 48.5104C102.426 48.7597 102.471 48.9183 102.471 48.9183L102.607 48.873L102.743 48.8277C102.743 48.8277 101.961 46.3461 101.542 45.1109C101.112 43.8418 99.9671 42.5046 99.9557 42.5046L99.6951 42.584C99.6611 42.7879 99.5251 43.1165 99.3325 43.4678C99.0379 44.0004 98.5959 44.6236 98.1767 45.1336C97.9727 45.3829 97.7574 45.6095 97.5874 45.7795C97.4061 45.9494 97.2475 46.0628 97.1682 46.0854C96.8169 46.2101 96.6242 46.414 96.5223 46.5953C96.4203 46.7767 96.4203 46.9126 96.4089 46.9353L96.4429 47.0373C97.9954 48.8616 99.7744 49.2696 101.021 49.2583C101.984 49.2583 102.63 49.0203 102.641 49.0203L102.732 48.839L102.596 48.8843L102.607 48.873Z" fill="#502C84"/>
<path d="M107.117 50.8222C107.117 50.8222 102.562 50.2329 102.018 47.2414C101.463 44.2499 99.8538 42.6068 99.8538 42.6068C99.8538 42.6068 103.253 38.7427 102.641 35.6492C102.029 32.5443 101.236 31.0032 101.236 31.0032C101.236 31.0032 106.517 30.6746 107.457 34.7653C108.398 38.856 106.313 41.5869 108.318 44.9297C110.324 48.2725 107.129 50.8335 107.129 50.8335L107.117 50.8222Z" fill="white"/>
<path d="M107.117 50.8221L107.14 50.6748C107.14 50.6748 107.128 50.6748 107.094 50.6748C106.856 50.6408 105.723 50.4481 104.613 49.9269C104.058 49.6662 103.502 49.315 103.06 48.873C102.618 48.4311 102.29 47.8872 102.165 47.2186C101.61 44.1931 99.9782 42.516 99.9555 42.5047L99.8536 42.6067L99.9669 42.7087C99.9669 42.7087 100.692 41.8928 101.417 40.703C102.143 39.5132 102.868 37.9494 102.868 36.4423C102.868 36.1704 102.845 35.8984 102.788 35.6265C102.165 32.5103 101.372 30.9578 101.361 30.9465L101.225 31.0145V31.1618C101.225 31.1618 101.259 31.1618 101.304 31.1618C101.349 31.1618 101.417 31.1618 101.508 31.1618C102.041 31.1618 103.31 31.2185 104.533 31.7171C105.145 31.9663 105.735 32.3176 106.233 32.8162C106.72 33.3148 107.117 33.9607 107.31 34.8219C107.502 35.6491 107.559 36.4083 107.559 37.1449C107.559 38.72 107.253 40.1364 107.253 41.5528C107.253 42.686 107.457 43.8305 108.182 45.0316C108.647 45.8135 108.828 46.5387 108.828 47.196C108.828 48.2385 108.386 49.1337 107.933 49.7569C107.706 50.0742 107.48 50.3235 107.31 50.4821C107.23 50.5614 107.151 50.6294 107.106 50.6748L107.049 50.7201H107.026L107.117 50.8447L107.208 50.958C107.208 50.958 107.684 50.5728 108.16 49.9155C108.636 49.2583 109.111 48.3178 109.111 47.1846C109.111 46.4707 108.919 45.6889 108.432 44.873C107.74 43.7172 107.548 42.6407 107.548 41.5415C107.548 40.1704 107.854 38.7539 107.854 37.1335C107.854 36.3857 107.786 35.5924 107.593 34.7539C107.389 33.8474 106.97 33.1448 106.437 32.6123C105.644 31.8077 104.624 31.3771 103.695 31.1391C102.766 30.9012 101.927 30.8672 101.508 30.8672C101.327 30.8672 101.225 30.8672 101.225 30.8672L101.1 31.0825C101.179 31.2638 101.916 32.7936 102.494 35.6831C102.539 35.9324 102.562 36.1817 102.562 36.4423C102.562 37.8588 101.859 39.3885 101.157 40.5557C100.805 41.1336 100.443 41.6322 100.182 41.9834C100.046 42.1534 99.9442 42.2894 99.8649 42.3914C99.8309 42.4367 99.7969 42.4707 99.7742 42.4934L99.7402 42.5274V42.7313L99.7629 42.7427C99.9329 42.924 101.361 44.5217 101.871 47.2866C102.018 48.0685 102.426 48.6917 102.947 49.1903C103.729 49.9269 104.771 50.3688 105.61 50.6408C106.449 50.9014 107.094 50.992 107.106 50.992L107.219 50.958L107.128 50.8447L107.117 50.8221Z" fill="#502C84"/>
<path d="M87.6268 92.5222L86.7203 104.035L87.7855 89.814L86.1877 104.035H86.7203L87.6268 92.5222Z" fill="#502C84"/>
<path d="M87.6267 92.5222L87.4794 92.5108L86.5728 104.024L86.8674 104.046L87.9213 89.8253L87.638 89.8026L86.0176 104.182H86.8561L87.774 92.5335L87.4794 92.5108L87.6267 92.5222L87.4794 92.5108L86.5842 103.888H86.3462L87.0488 97.644L86.5728 104.024L86.8674 104.046L87.774 92.5335L87.4794 92.5108L87.6267 92.5222Z" fill="#502C84"/>
<path d="M92.9414 60.8278C92.9414 60.8278 94.5505 61.5303 94.5505 62.3462L92.9414 60.8278Z" fill="#E9E9EA"/>
<path d="M92.8733 60.9638C92.8733 60.9638 92.896 60.9638 92.9413 60.9978C93.0886 61.0658 93.4625 61.2584 93.8025 61.519C93.9725 61.6437 94.1198 61.791 94.2331 61.9383C94.3464 62.0856 94.4031 62.2329 94.4031 62.3689H94.6977C94.6977 62.1196 94.573 61.893 94.4144 61.689C94.1651 61.3944 93.8251 61.1564 93.5305 60.9865C93.2359 60.8165 93.0093 60.7145 93.0093 60.7145L92.896 60.9865L92.8733 60.9638Z" fill="#502C84"/>
<path d="M86.2783 70.1763L93.9611 71.0375L92.2047 70.063L86.2783 70.1763Z" fill="#502C84"/>
<path d="M86.2782 70.1763L86.2668 70.3236L94.6635 71.2641L92.2386 69.9156L86.2782 70.0403L86.2668 70.3236L86.2782 70.1763L86.2895 70.3236L92.1706 70.2103L93.2471 70.8109L86.3008 70.0403L86.2782 70.1763L86.2895 70.3236L86.2782 70.1763Z" fill="#502C84"/>
<path d="M60.7373 68.5786H80.8395V70.1764H61.3832L60.7373 68.5786Z" fill="#502C84"/>
<path d="M60.737 68.5786V68.7259H80.6919V70.029H61.4849L60.873 68.5219L60.737 68.5786V68.7259V68.5786L60.6011 68.6353L61.2809 70.3237H80.9865V68.4313H60.5217L60.6011 68.6353L60.737 68.5786Z" fill="#502C84"/>
<path d="M40.4085 89.0094H12.8728V77.7345H42.1649V87.253C42.1649 88.2275 41.383 89.0094 40.4085 89.0094Z" fill="white"/>
<path d="M40.4083 89.0094V88.862H13.0086V77.8704H42.0174V87.253C42.0174 87.6949 41.8361 88.1028 41.5415 88.3861C41.2469 88.6808 40.8503 88.862 40.4083 88.862V89.1567C41.4622 89.1567 42.312 88.3068 42.312 87.253V77.5872H12.7253V89.1567H40.4083V89.0094Z" fill="#502C84"/>
<path d="M95.8534 109.984V73.7344C95.6835 72.6692 95.1622 71.706 94.4257 71.0035C93.6778 70.3009 92.7033 69.859 91.6268 69.8703H16.5212C14.3682 69.8703 12.6118 71.6154 12.6118 73.7797V110.528H13.0991V73.7797C13.0991 72.8392 13.4843 71.978 14.0962 71.3548C14.7195 70.7315 15.5693 70.3576 16.5212 70.3576H91.6268C92.5673 70.3576 93.4285 70.7428 94.0971 71.3661C94.7656 71.9893 95.2302 72.8619 95.3775 73.825L95.6155 73.791H95.3775V109.995H95.8648L95.8534 109.984Z" fill="#512B83"/>
<path d="M94.1881 70.1084H14.6745C13.6774 70.1084 12.8728 70.9129 12.8728 71.9101V76.1821H95.6272V71.5362C95.6272 70.743 94.9926 70.1084 94.1994 70.1084H94.1881Z" fill="white"/>
<path d="M94.1879 70.1084V69.9611H14.6744C13.5979 69.9611 12.7253 70.8336 12.7253 71.9101V76.3294H95.7743V71.5362C95.7743 70.6636 95.0718 69.9611 94.1992 69.9611V70.2557C94.5505 70.2557 94.8791 70.403 95.1058 70.6296C95.3437 70.8676 95.4797 71.1849 95.4797 71.5362V76.0348H13.02V71.9101C13.02 71.4568 13.2013 71.0376 13.5072 70.7429C13.8132 70.4483 14.2211 70.2557 14.6744 70.2557H94.1879V70.1084Z" fill="#502C84"/>
<path d="M12.8613 76.4313H95.6157V75.9441H12.8613" fill="#512B83"/>
<path d="M42.1649 70.1084H14.3686C13.5414 70.1084 12.8728 70.777 12.8728 71.6042V76.1821H42.1649V70.1084Z" fill="white"/>
<path d="M42.1647 70.1084V69.9611H14.3684C13.4619 69.9611 12.7253 70.6976 12.7253 71.6041V76.3294H42.312V69.9611H42.1647V70.1084H42.0174V76.0348H13.0086V71.6041C13.0086 71.2302 13.1559 70.8903 13.4052 70.6523C13.6545 70.403 13.9831 70.2557 14.3571 70.2557H42.1534V70.1084H42.1647Z" fill="#502C84"/>
<path d="M32.6803 80.0461H22.3345C21.9606 80.0461 21.6433 79.7402 21.6433 79.3549V77.7345H33.3601V79.3549C33.3601 79.7288 33.0542 80.0461 32.6689 80.0461H32.6803Z" fill="#E9E9EA"/>
<path d="M32.6802 80.0461V79.8988H22.3345C22.0399 79.8988 21.7906 79.6609 21.7906 79.3549V77.8818H33.2128V79.3549C33.2128 79.6495 32.9748 79.8988 32.6689 79.8988V80.1934C33.1335 80.1934 33.4961 79.8195 33.4961 79.3663V77.5985H21.4846V79.3663C21.4846 79.8309 21.8586 80.1934 22.3118 80.1934H32.6575V80.0461H32.6802Z" fill="#502C84"/>
<path d="M86.5957 70.1197L94.3352 70.9922L92.5674 70.0063L86.5957 70.1197Z" fill="#502C84"/>
<path d="M86.5956 70.1198L86.5842 70.2671L95.0376 71.2189L92.6013 69.8591L86.5956 69.9725L86.5842 70.2671L86.5956 70.1198L86.6069 70.2671L92.522 70.1538L93.6211 70.7656L86.6182 69.9725L86.5956 70.1198L86.6069 70.2671L86.5956 70.1198Z" fill="#502C84"/>
<path d="M61.5641 70.0404L54.8105 53.145L54.5386 53.2583L61.2922 70.1537" fill="#502C84"/>
<path d="M32.6803 72.42H22.3345C21.9606 72.42 21.6433 72.1141 21.6433 71.7288V70.1084H33.3601V71.7288C33.3601 72.1027 33.0542 72.42 32.6689 72.42H32.6803Z" fill="#E9E9EA"/>
<path d="M32.6802 72.42V72.2727H22.3345C22.0399 72.2727 21.7906 72.0347 21.7906 71.7288V70.2557H33.2128V71.7288C33.2128 72.0234 32.9748 72.2727 32.6689 72.2727V72.5673C33.1335 72.5673 33.4961 72.1934 33.4961 71.7401V69.9724H21.4846V71.7401C21.4846 72.2047 21.8586 72.5673 22.3118 72.5673H32.6575V72.42H32.6802Z" fill="#502C84"/>
<path d="M21.6545 77.7345L21.8019 78.5164H33.2354L33.3714 77.7345H21.6545Z" fill="#502C84"/>
<path d="M21.6546 77.7345L21.5073 77.7571L21.6773 78.6636H33.3488L33.5414 77.5872H21.4846L21.5073 77.7571L21.6546 77.7345V77.8818H33.1901L33.1108 78.369H21.9152L21.8019 77.7118L21.6546 77.7345V77.8818V77.7345Z" fill="#502C84"/>
<path d="M21.6545 70.2217L21.8019 71.0149H33.2354L33.3714 70.2217H21.6545Z" fill="#502C84"/>
<path d="M21.6546 70.2217L21.5073 70.2443L21.6773 71.1509H33.3488L33.5414 70.0743H21.4846L21.5073 70.2443L21.6546 70.2217V70.369H33.1901L33.1108 70.8676H21.9152L21.8019 70.199L21.6546 70.2217V70.369V70.2217Z" fill="#502C84"/>
<path d="M6.69694 86.3351C6.69694 86.3351 10.0511 73.7797 1.00849 65.6776C1.00849 65.6776 -3.12752 75.9327 6.69694 86.3351Z" fill="#E9E9EA"/>
<path d="M6.69696 86.3351L6.84426 86.3691C6.84426 86.3691 7.45617 84.0688 7.45617 80.8166C7.45617 76.42 6.34568 70.2556 1.1105 65.5643L0.872526 65.621C0.872526 65.621 0 67.7967 0 71.1395C0 75.1168 1.23514 80.76 6.59497 86.4257L6.84426 86.3577L6.69696 86.3238L6.79893 86.2218C1.48443 80.6013 0.283289 75.0488 0.283289 71.1281C0.283289 69.4851 0.498585 68.1253 0.713885 67.1848C0.815869 66.7088 0.929187 66.3462 1.00851 66.0969C1.05383 65.9723 1.0765 65.8816 1.09916 65.8136C1.11049 65.7796 1.12182 65.757 1.12182 65.7456V65.723L0.997174 65.6663L0.895194 65.7796C6.05105 70.3916 7.15021 76.4653 7.15021 80.8166C7.15021 82.4257 7.0029 83.7968 6.84426 84.7713C6.76494 85.2586 6.69695 85.6325 6.64029 85.9045C6.61763 86.0405 6.58364 86.1311 6.57231 86.1991C6.56098 86.2671 6.54964 86.3011 6.54964 86.3011L6.69696 86.3351Z" fill="#502C84"/>
<path d="M16.1247 50.6293C16.1247 50.6293 2.49285 63.1166 8.29461 84.5786C8.29461 84.5786 22.3344 68.1819 16.1247 50.6293Z" fill="#E9E9EA"/>
<path d="M16.1245 50.6293L16.0226 50.516C16.0226 50.516 6.70801 59.0487 6.70801 74.1196C6.70801 77.3265 7.12728 80.8279 8.14712 84.6126L8.39642 84.6693C8.39642 84.6693 17.8356 73.6437 17.8469 59.9552C17.8469 56.9297 17.3823 53.7682 16.2492 50.5727L16.0112 50.516L16.1132 50.6293L15.9772 50.6746C17.099 53.8362 17.5523 56.9637 17.5523 59.9552C17.5523 66.7315 15.2067 72.8618 12.861 77.3038C11.6826 79.5248 10.5154 81.3152 9.63155 82.5616C9.18962 83.1849 8.82701 83.6608 8.56638 83.9894C8.44174 84.1481 8.33976 84.2727 8.27177 84.3633C8.20378 84.4427 8.16978 84.488 8.16978 84.488L8.28309 84.5787L8.41908 84.5447C7.39924 80.7939 6.97997 77.3151 6.97997 74.131C6.97997 66.6521 9.29161 60.8051 11.5919 56.8277C12.7477 54.8333 13.9036 53.3149 14.7648 52.2951C15.1954 51.7851 15.558 51.3999 15.8073 51.1392C15.9319 51.0146 16.0339 50.9126 16.1019 50.8446C16.1359 50.8106 16.1585 50.788 16.1812 50.7766L16.2039 50.754L16.1019 50.6407L16.1245 50.6293Z" fill="#502C84"/>
<path d="M7.77336 99.5591C7.7167 98.358 7.69404 97.1568 7.69404 95.9783C7.69404 87.3323 9.01982 79.4569 10.3456 73.7345C11.0142 70.879 11.6714 68.556 12.17 66.9582C12.4193 66.1537 12.6233 65.5304 12.7706 65.1112C12.8386 64.8959 12.8952 64.7373 12.9406 64.6353C12.9745 64.522 12.9972 64.4766 12.9972 64.4766L12.7253 64.3746C12.7253 64.3746 7.39941 78.6411 7.39941 95.9897C7.39941 97.1682 7.42208 98.3693 7.47873 99.5818H7.77336V99.5591Z" fill="#502C84"/>
<path d="M3.16138 73.5871C3.16138 73.5871 3.21803 73.7231 3.32002 73.961C4.01124 75.6947 6.77615 83.0716 6.77615 90.0178C6.77615 91.0717 6.70816 92.1142 6.57218 93.134L6.86679 93.1793C7.0141 92.1482 7.0821 91.0943 7.0821 90.0292C7.0821 82.0064 3.456 73.4964 3.456 73.4851L3.18404 73.5984L3.16138 73.5871Z" fill="#502C84"/>
<path d="M10.8668 87.8309H3.85254V110.426H10.8668V87.8309Z" fill="white"/>
<path d="M10.8555 110.426V110.279H3.99995V87.9782H10.7082V110.426H10.8555V110.279V110.426H11.0028V87.8309L10.8555 87.6836H3.85264L3.70532 87.8309V110.426L3.85264 110.573H10.8555L11.0028 110.426H10.8555Z" fill="#502C84"/>
<path d="M3.85254 90.6298H10.8554V90.3352H3.85254" fill="#502C84"/>
</svg>
