<svg width="89" height="170" viewBox="0 0 89 170" fill="none" xmlns="http://www.w3.org/2000/svg">
<path d="M64.0499 132.311L66.1601 134.226H82.9834L81.5345 131.139L64.0499 132.311Z" fill="#4D2C87"/>
<path d="M81.7388 123.272H62.2559V154.123H81.7388V123.272Z" fill="white"/>
<path d="M88.5361 155.158H54.1894L54.1651 162.496C54.1505 166.497 57.3888 169.745 61.3904 169.745H88.5361V155.158Z" fill="#E9EAEA"/>
<path d="M88.536 155.158V154.944H53.9753L53.9462 162.495V162.52C53.9462 166.628 57.2768 169.959 61.3902 169.959H88.7548V154.944H88.5409V155.158H88.3269V169.526H61.3951C59.4599 169.526 57.7047 168.743 56.4356 167.474C55.1666 166.205 54.3838 164.455 54.3838 162.52V162.495L54.4081 155.377H88.5409V155.163L88.536 155.158Z" fill="#512A81"/>
<path d="M44.5524 107.713L29.7129 101.251L15.9382 96.6367C14.8977 96.2867 13.8718 97.2007 14.0954 98.2753C14.606 100.711 16.264 102.622 18.3547 103.653L28.1473 108.476L36.4957 114.734C36.4957 114.734 39.5832 136.424 54.1358 147.671C54.2866 147.637 54.2039 155.222 54.2039 155.222H88.5312V147.102" fill="white"/>
<path d="M44.64 107.513L29.7908 101.051L16.0064 96.4322C15.8313 96.3739 15.6563 96.3447 15.4812 96.3447C14.5963 96.3447 13.8475 97.0692 13.8475 97.9736C13.8475 98.0854 13.8572 98.2021 13.8816 98.3139C14.4067 100.823 16.1085 102.782 18.2576 103.842L28.0306 108.661L36.3645 114.904L36.4958 114.729L36.2818 114.758C36.2818 114.758 37.0598 120.204 39.6562 127.055C42.2575 133.905 46.6821 142.171 54.0046 147.836L54.0824 147.899L54.1797 147.879L54.1359 147.675V147.884H54.1797L54.1359 147.675L54.0095 147.841C54.0338 147.86 54.0824 147.884 54.1359 147.884V147.675L54.0095 147.841L54.1262 147.685L53.9463 147.763C53.9463 147.763 53.956 147.797 54.0095 147.841L54.1262 147.685L53.9463 147.763L54.0338 147.724L53.9414 147.748V147.763L54.0338 147.724L53.9414 147.748C53.9414 147.748 53.9511 147.797 53.956 147.86C53.9755 148.089 53.99 148.555 53.9998 149.144C54.0095 149.732 54.0095 150.442 54.0095 151.166C54.0095 152.153 54.0046 153.165 53.9998 153.933C53.9998 154.317 53.9949 154.638 53.99 154.862C53.9852 155.085 53.99 155.217 53.99 155.217V155.435H88.7501V147.101H88.3173V155.003H54.204V155.217H54.4179C54.4179 155.217 54.4422 153.14 54.4422 151.161C54.4422 150.267 54.4422 149.392 54.4228 148.735C54.4179 148.409 54.4082 148.137 54.3936 147.943C54.3887 147.845 54.379 147.768 54.3742 147.709C54.3742 147.68 54.3644 147.651 54.3547 147.617C54.3499 147.597 54.345 147.583 54.3255 147.549C54.3158 147.534 54.3012 147.515 54.272 147.49C54.2429 147.466 54.1943 147.447 54.1408 147.447H54.0922L54.1408 147.661L54.272 147.49C47.0419 141.904 42.6465 133.706 40.0646 126.899C38.7713 123.495 37.935 120.442 37.4196 118.239C37.1619 117.14 36.9868 116.251 36.875 115.638C36.8167 115.332 36.7778 115.093 36.7535 114.933C36.7389 114.855 36.7292 114.792 36.7243 114.753C36.7194 114.714 36.7146 114.695 36.7146 114.695L36.7 114.607L28.264 108.286L18.4521 103.453C16.4148 102.447 14.8054 100.589 14.3094 98.2264C14.29 98.1389 14.2803 98.0562 14.2803 97.9736C14.2803 97.643 14.4164 97.3463 14.6401 97.1275C14.8589 96.9087 15.1603 96.7775 15.4861 96.7775C15.6125 96.7775 15.7438 96.7969 15.8751 96.8407L29.64 101.455L44.4698 107.912L44.64 107.518V107.513Z" fill="#512A81"/>
<path d="M56.2267 94.0158L47.5768 75.8749L34.8329 57.5589C33.1068 55.1424 33.2089 51.9479 34.9107 49.6675C35.4407 48.9576 36.5104 48.943 37.0938 49.6091L55.9544 71.1099L74.0078 96.2768C83.2655 109.181 88.6042 122.747 88.6042 142.23L88.5361 155.217" fill="white"/>
<path d="M56.4212 93.9235L47.7616 75.7679L35.0079 57.4374C34.1911 56.2947 33.8021 54.977 33.7972 53.674C33.7972 52.298 34.2348 50.9317 35.0809 49.7988C35.3094 49.4925 35.6546 49.3417 36.0096 49.3369C36.345 49.3369 36.6854 49.4779 36.9285 49.7502L55.7842 71.2461L73.8279 96.4032C83.0613 109.283 88.3806 122.79 88.3806 142.23L88.3125 155.217H88.7452L88.8133 142.23C88.8133 122.708 83.4551 109.079 74.178 96.1504L56.1197 70.9738L37.2494 49.4633C36.9188 49.0889 36.4617 48.8993 36.0047 48.8993C35.5282 48.8993 35.042 49.1084 34.7308 49.5314C33.8313 50.7421 33.3645 52.1959 33.3645 53.6643C33.3645 55.0597 33.7875 56.4649 34.653 57.6805L34.828 57.554L34.653 57.6756L47.3872 75.977L56.0273 94.0985L56.4163 93.9137L56.4212 93.9235Z" fill="#4D2C87"/>
<path d="M79.0208 124.658H39.1652L38.2219 120.136L79.8912 120.014L84.7096 116.654L84.7582 116.8C86.003 120.69 83.1051 124.662 79.0208 124.662V124.658Z" fill="#4D2C87"/>
<path d="M30.4715 2.84912H76.4438C80.8976 2.84912 84.5102 6.46175 84.5102 10.9155V11.0566H22.4099V10.9155C22.4099 6.46175 26.0225 2.84912 30.4763 2.84912H30.4715Z" fill="#D1D4D6"/>
<path d="M30.4715 2.8493V3.06324H76.4438C78.6124 3.06324 80.5718 3.94329 81.9916 5.36306C83.4114 6.78283 84.2915 8.74231 84.2915 10.9109V11.0519H84.5054V10.8379H22.4051V11.0519H22.619V10.9109C22.619 8.74231 23.4991 6.78283 24.9188 5.36306C26.3386 3.94329 28.2981 3.06324 30.4666 3.06324V2.63049C25.8913 2.63049 22.1863 6.33551 22.1863 10.9109V11.2658H84.7193V10.9109C84.7193 6.33551 81.0143 2.63049 76.439 2.63049H30.4666V2.84443L30.4715 2.8493Z" fill="#512A81"/>
<path d="M76.4487 123.233H30.4763C26.0225 123.233 22.4099 119.62 22.4099 115.167V115.026H84.5102V115.167C84.5102 119.62 80.8976 123.233 76.4438 123.233H76.4487Z" fill="#D1D4D6"/>
<path d="M76.4486 123.233V123.019H30.4763C28.3078 123.019 26.3483 122.139 24.9285 120.719C23.5087 119.3 22.6287 117.34 22.6287 115.171V115.03H22.4147V115.244H84.515V115.03H84.3011V115.171C84.3011 117.34 83.4211 119.3 82.0013 120.719C80.5815 122.139 78.6221 123.019 76.4535 123.019V123.452C81.0289 123.452 84.7339 119.747 84.7339 115.171V114.817H22.2008V115.171C22.2008 119.747 25.9058 123.452 30.4812 123.452H76.4535V123.238L76.4486 123.233Z" fill="#512A81"/>
<path d="M84.5102 11.0566H22.4099V115.03H84.5102V11.0566Z" fill="white"/>
<path d="M22.41 11.0566V11.2705H84.2963V114.812H22.6239V11.0566H22.41V11.2705V11.0566H22.1912V115.244H84.7291V10.8427H22.1912V11.0566H22.41Z" fill="#4D2C87"/>
<path d="M71.99 16.5751H79.8279V16.1472H71.99" fill="#512A81"/>
<path d="M71.99 19.5461H79.8279V19.1134H71.99" fill="#512A81"/>
<path d="M71.99 22.512H79.8279V22.0792H71.99" fill="#512A81"/>
<path d="M74.7323 22.5703C74.7323 24.2381 73.3806 25.5946 71.708 25.5946C70.0354 25.5946 68.6837 24.2429 68.6837 22.5703C68.6837 20.8977 70.0354 19.546 71.708 19.546C73.3806 19.546 74.7323 20.8977 74.7323 22.5703Z" fill="#F05662"/>
<path d="M66.16 96.8116H40.4486V103.487H66.16V96.8116Z" fill="#D1D4D6"/>
<path d="M40.4487 103.488V103.701H66.3789V96.5978H40.2347V103.701H40.4487V103.488H40.6626V97.0305H65.9462V103.269H40.4487V103.488H40.6626H40.4487Z" fill="#512A81"/>
<path d="M66.16 90.1406H40.4486V101.82H66.16V90.1406Z" fill="white"/>
<path d="M40.4487 101.82V102.034H66.3789V89.9219H40.2347V102.034H40.4487V101.82H40.6626V90.3546H65.9462V101.601H40.4487V101.82H40.6626H40.4487Z" fill="#4D2C87"/>
<path d="M46.1181 99.057C45.4647 99.057 44.9421 98.8913 44.5501 98.56C44.1627 98.224 43.9574 97.7666 43.9341 97.188H45.1451C45.1591 97.4633 45.2547 97.6803 45.4321 97.839C45.6094 97.993 45.8474 98.07 46.1461 98.07C46.3981 98.07 46.6011 98.0116 46.7551 97.895C46.9137 97.7783 46.9931 97.6266 46.9931 97.44C46.9931 97.216 46.9114 97.0526 46.7481 96.95C46.5894 96.8473 46.3117 96.7796 45.9151 96.747C45.3177 96.6956 44.8651 96.5416 44.5571 96.285C44.2491 96.0236 44.0951 95.6643 44.0951 95.207C44.0951 94.7263 44.2701 94.3413 44.6201 94.052C44.9701 93.758 45.4321 93.611 46.0061 93.611C46.6221 93.611 47.1074 93.758 47.4621 94.052C47.8214 94.3413 48.0174 94.7543 48.0501 95.291H46.8531C46.8017 94.8196 46.5241 94.584 46.0201 94.584C45.7914 94.584 45.6094 94.6353 45.4741 94.738C45.3387 94.836 45.2711 94.969 45.2711 95.137C45.2711 95.3516 45.3504 95.508 45.5091 95.606C45.6724 95.6993 45.9547 95.7576 46.3561 95.781C47.5647 95.8603 48.1691 96.3853 48.1691 97.356C48.1691 97.8786 47.9824 98.294 47.6091 98.602C47.2404 98.9053 46.7434 99.057 46.1181 99.057Z" fill="#4D2C87"/>
<path d="M49.9415 97.972H52.2375V98.959H48.7235V93.709H52.1605V94.696H49.9415V95.753H51.8245V96.705H49.9415V97.972Z" fill="#4D2C87"/>
<path d="M53.9932 98.959H52.8592V93.709H54.0422L56.0092 97.02H56.0302V93.709H57.1712V98.959H55.9882L54.0142 95.648H53.9932V98.959Z" fill="#4D2C87"/>
<path d="M59.8145 93.709C60.6638 93.709 61.3335 93.9493 61.8235 94.43C62.3135 94.9106 62.5585 95.5406 62.5585 96.32C62.5585 97.1133 62.3135 97.7526 61.8235 98.238C61.3335 98.7186 60.6662 98.959 59.8215 98.959H57.9315V93.709H59.8145ZM59.7935 97.853C60.3068 97.853 60.6895 97.713 60.9415 97.433C61.1982 97.153 61.3265 96.782 61.3265 96.32C61.3265 95.8626 61.1982 95.494 60.9415 95.214C60.6895 94.9293 60.3045 94.787 59.7865 94.787H59.1145V97.853H59.7935Z" fill="#4D2C87"/>
<path d="M60.0532 147.16C51.9673 138.807 54.4276 127.881 56.8635 123.797C58.0548 121.803 57.87 119.28 56.4454 117.447L51.5443 110.299C49.0986 107.056 48.695 102.739 50.4503 99.1698C50.7712 98.5183 51.6415 98.3773 52.1569 98.8878L72.6658 119.231C74.1682 120.797 76.7112 124.308 77.7322 125.985" fill="white"/>
<path d="M54.1748 158.756H88.5361V164.265H54.3838L54.165 162.491L54.1748 158.756Z" fill="white"/>
<path d="M60.2087 147.009C56.0661 142.731 54.7241 137.781 54.7241 133.429C54.7241 129.374 55.9007 125.839 57.0531 123.909C57.6025 122.99 57.8699 121.964 57.8699 120.943C57.8699 119.654 57.4469 118.371 56.6204 117.316L56.4502 117.447L56.6301 117.325L51.7241 110.173C50.3141 108.296 49.5944 106.06 49.5944 103.823C49.5944 102.262 49.9445 100.701 50.6496 99.2623C50.8003 98.956 51.1017 98.7955 51.4081 98.7907C51.622 98.7907 51.8359 98.8685 52.0061 99.0386L72.515 119.382L72.6657 119.227L72.5101 119.377C73.2491 120.146 74.2556 121.415 75.2038 122.688C76.1519 123.967 77.0417 125.261 77.5425 126.092L77.912 125.868C77.3966 125.017 76.502 123.719 75.549 122.436C74.596 121.147 73.5798 119.878 72.8164 119.081L52.3027 98.7323C52.0499 98.4795 51.7192 98.3579 51.3983 98.3579C50.9364 98.3579 50.4794 98.6059 50.2508 99.0678C49.5118 100.565 49.152 102.194 49.152 103.818C49.152 106.147 49.9008 108.476 51.3643 110.421L51.5345 110.29L51.3546 110.411L56.2605 117.564C57.0239 118.551 57.4178 119.742 57.4178 120.933C57.4178 121.881 57.1698 122.829 56.6641 123.676C55.4631 125.688 54.2768 129.277 54.2768 133.419C54.2768 137.859 55.6528 142.935 59.8829 147.301L60.1941 147L60.2087 147.009Z" fill="#512A81"/>
<path d="M54.1747 158.756V158.97H88.3172V164.046H54.5734L54.3789 162.481L54.3935 158.756H54.1747V158.97V158.756L53.9608 158.752L53.9462 162.505L54.1941 164.479H88.75V158.538H53.9608V158.752L54.1747 158.756Z" fill="#512A81"/>
<path d="M88.536 161.294H74.066V161.727H88.536" fill="#512A81"/>
<path d="M72.6124 161.294H70.7745V161.727H72.6124" fill="#512A81"/>
<path d="M68.6447 161.294H60.6025V161.727H68.6447" fill="#512A81"/>
<path d="M58.5704 161.294H56.9221V161.727H58.5704" fill="#512A81"/>
<path d="M73.5069 32.9366H34.0256V36.6271H73.5069V32.9366Z" fill="#E9EAEA"/>
<path d="M73.507 36.627V36.4082H34.2396V33.1505H73.2881V36.627H73.507V36.4082V36.627H73.7209V32.7178H33.8069V36.8409H73.7209V36.627H73.507Z" fill="#512A81"/>
<path d="M30.1749 32.9366H26.4845V36.6271H30.1749V32.9366Z" fill="#D1D4D6"/>
<path d="M26.4846 32.9366V33.1505H29.9562V36.4082H26.6985V32.9366H26.4846V33.1505V32.9366H26.2657V36.8409H30.3889V32.7178H26.2657V32.9366H26.4846Z" fill="#512A81"/>
<path d="M73.5069 68.1245H34.0256V71.8149H73.5069V68.1245Z" fill="#E9EAEA"/>
<path d="M73.507 71.8149V71.6009H34.2396V68.3384H73.2881V71.8149H73.507V71.6009V71.8149H73.7209V67.9056H33.8069V72.0288H73.7209V71.8149H73.507Z" fill="#512A81"/>
<path d="M30.1749 68.1245H26.4845V71.8149H30.1749V68.1245Z" fill="#D1D4D6"/>
<path d="M26.4846 68.1244V68.3384H29.9562V71.6009H26.6985V68.1244H26.4846V68.3384V68.1244H26.2657V72.0288H30.3889V67.9056H26.2657V68.1244H26.4846Z" fill="#512A81"/>
<path d="M73.5069 54.3888H34.0256V63.9576H73.5069V54.3888Z" fill="#E9EAEA"/>
<path d="M73.507 63.9577V63.7438H34.2396V54.6028H73.2881V63.9577H73.507V63.7438V63.9577H73.7209V54.17H33.8069V64.1716H73.7209V63.9577H73.507Z" fill="#512A81"/>
<path d="M30.1749 54.3888H26.4845V58.0792H30.1749V54.3888Z" fill="#D1D4D6"/>
<path d="M26.4846 54.3888V54.6028H29.9562V57.8605H26.6985V54.3888H26.4846V54.6028V54.3888H26.2657V58.2932H30.3889V54.17H26.2657V54.3888H26.4846Z" fill="#512A81"/>
<path d="M73.6091 40.8961H34.1278V50.465H73.6091V40.8961Z" fill="white"/>
<path d="M34.1279 50.4649V50.6788H73.823V40.6772H33.9091V50.6788H34.1279V50.4649H34.3418V41.11H73.3903V50.2461H34.1279V50.4649H34.3418H34.1279Z" fill="#512A81"/>
<path d="M81.1455 40.8961H77.4551V44.5865H81.1455V40.8961Z" fill="#D1D4D6"/>
<path d="M81.1504 40.8961V40.6772H77.2412V44.8004H81.3644V40.6772H81.1504V40.8961H80.9316V44.3677H77.674V41.11H81.1504V40.8961H80.9316H81.1504Z" fill="#512A81"/>
<path d="M73.5069 76.2444H34.0256V79.9348H73.5069V76.2444Z" fill="white"/>
<path d="M73.507 79.9397V79.7209H34.2396V76.4632H73.2881V79.9397H73.507V79.7209V79.9397H73.7209V76.0305H33.8069V80.1537H73.7209V79.9397H73.507Z" fill="#512A81"/>
<path d="M81.1455 76.2444H77.4551V79.9348H81.1455V76.2444Z" fill="#D1D4D6"/>
<path d="M81.1504 76.2445V76.0305H77.2412V80.1537H81.3644V76.0305H81.1504V76.2445H80.9316V79.7209H77.674V76.4632H81.1504V76.2445H80.9316H81.1504Z" fill="#512A81"/>
<path d="M34.0208 11.1929H36.7582V29.3192H34.4097L34.152 28.1085L34.0208 27.8751V11.1929Z" fill="#4D2C87"/>
<path d="M34.021 0.213867V24.102V28.3272L27.2625 21.5688H0.213989V0.213867H34.021Z" fill="#D1D4D6"/>
<path d="M34.021 0.213939H33.807V24.1021V27.8071L27.35 21.35H0.432745V0.432745H34.021V0.213939H33.807H34.021V0H0V21.7828H27.1701L34.2398 28.8476V24.1021V0H34.021V0.213939Z" fill="#512A81"/>
<path d="M20.256 17.3676C18.3402 17.3676 16.7892 15.8166 16.7892 13.9008C16.7892 11.9851 18.3402 10.4341 20.256 10.4341C22.1717 10.4341 23.7227 11.9851 23.7227 13.9008L23.7762 15.7193L24.8751 17.3676H20.256Z" fill="#4D2C87"/>
<path d="M9.76819 13.6871L11.3338 11.3484L11.4165 8.38728C11.4165 5.45536 13.799 3.07288 16.726 3.07288C19.6531 3.07288 22.0356 5.45537 22.0356 8.38243C22.0356 11.3095 19.6531 13.692 16.726 13.692H9.76819V13.6871Z" fill="white"/>
<path d="M16.726 3.28185C19.5364 3.28185 21.8216 5.5671 21.8216 8.37747C21.8216 11.1878 19.5364 13.4731 16.726 13.4731H10.1718L11.4748 11.5185L11.5429 11.4164V11.2899L11.6256 8.38719V8.37747C11.6256 5.5671 13.9108 3.28185 16.7212 3.28185M16.726 2.84912C13.6725 2.84912 11.2025 5.32399 11.2025 8.3726L11.1199 11.2753L9.36462 13.9009H16.726C19.7795 13.9009 22.2495 11.4261 22.2495 8.37747C22.2495 5.32885 19.7746 2.85397 16.726 2.85397V2.84912Z" fill="#4D2C87"/>
</svg>
