<svg width="56" height="28" viewBox="0 0 56 28" fill="none" xmlns="http://www.w3.org/2000/svg">
<path d="M9.19198 28C12.1121 28 14.5091 27.085 16.0784 25.5548C17.2566 24.3755 17.9523 22.8046 17.9523 20.9746C17.9523 19.3174 17.3429 17.833 16.2104 16.6993C15.0779 15.5657 13.463 14.7371 11.4163 14.3457L8.05949 13.6899C6.66292 13.4306 5.88084 12.7291 5.88084 11.7683C5.88084 10.5025 7.09966 9.63326 9.05994 9.63326C10.2788 9.63326 11.3249 10.0247 12.0258 10.7262C12.4625 11.2041 12.7672 11.8192 12.8535 12.5156L17.6933 11.4227C17.5613 10.0247 16.9112 8.80465 15.9057 7.8032C14.3364 6.23239 11.8988 5.23094 9.01932 5.23094C6.36329 5.23094 4.13893 6.1053 2.6154 7.49818C1.31024 8.71823 0.568786 10.3755 0.568786 12.2106C0.568786 13.8272 1.09187 15.1794 2.13803 16.2215C3.18418 17.2687 4.70772 18.0516 6.7137 18.5345L10.0248 19.3174C11.6804 19.7088 12.4219 20.3188 12.4219 21.4118C12.4219 22.764 11.203 23.5468 9.19706 23.5468C7.75986 23.5468 6.58166 23.069 5.84021 22.281C5.31713 21.7574 5.01242 21.061 4.96672 20.2731L0 21.366C0.13204 22.8504 0.827787 24.1569 1.87395 25.2041C3.52952 26.9477 6.19062 27.9949 9.19706 27.9949L9.19198 28ZM45.9752 28C49.2 28 51.6833 26.8206 53.3846 25.1634C54.7355 23.8569 55.5633 22.3268 56 20.756L50.9012 19.053C50.6829 19.8359 50.2461 20.6696 49.5504 21.3203C48.7226 22.1031 47.5901 22.6725 45.9752 22.6725C44.4922 22.6725 43.1008 22.1031 42.0952 21.1017C41.0948 20.0545 40.4803 18.5294 40.4803 16.6078C40.4803 14.6863 41.0897 13.1612 42.0952 12.114C43.0957 11.1126 44.4465 10.589 45.9294 10.589C47.4987 10.589 48.5855 11.1126 49.3726 11.8954C50.0278 12.5512 50.4188 13.3798 50.6778 14.2084L55.8629 12.4648C55.4718 10.9397 54.6441 9.40959 53.4202 8.14379C51.6782 6.44081 49.1492 5.22077 45.7923 5.22077C42.6996 5.22077 39.9115 6.40015 37.9055 8.40305C35.8995 10.4517 34.6807 13.2883 34.6807 16.6028C34.6807 19.9172 35.9452 22.7538 37.9918 24.8025C39.9978 26.8105 42.8316 27.9848 45.965 27.9848L45.9752 28ZM28.3682 28C30.6332 28 32.2481 27.3036 32.9439 26.6935V21.9811C32.4208 22.3726 31.3746 22.8555 30.0238 22.8555C29.0639 22.8555 28.3682 22.6369 27.8451 22.159C27.4084 21.7219 27.19 20.9797 27.19 19.9782V0H21.4361V5.88671H32.9388V11.4684H21.4361V21.3711C21.4361 23.3791 22.0455 24.9906 23.1374 26.1242C24.3562 27.3442 26.1438 28 28.3682 28Z" fill="#4D2C87"/>
</svg>
