<svg width="32" height="16" viewBox="0 0 32 16" fill="none" xmlns="http://www.w3.org/2000/svg">
<path d="M5.19352 15.8202C6.8434 15.8202 8.19773 15.3032 9.08436 14.4386C9.75005 13.7723 10.1432 12.8848 10.1432 11.8508C10.1432 10.9144 9.79883 10.0757 9.15897 9.43523C8.5191 8.79473 7.60665 8.32655 6.4503 8.10539L4.55366 7.73488C3.76459 7.58839 3.32271 7.19203 3.32271 6.64918C3.32271 5.934 4.01135 5.44285 5.11892 5.44285C5.80757 5.44285 6.39865 5.66401 6.79462 6.06038C7.04139 6.33036 7.21355 6.6779 7.26233 7.07139L9.99682 6.45387C9.92221 5.66401 9.55494 4.97468 8.98681 4.40885C8.10018 3.52134 6.72289 2.95551 5.09597 2.95551C3.5953 2.95551 2.33852 3.44953 1.47772 4.23652C0.740292 4.92585 0.321368 5.86219 0.321368 6.89906C0.321368 7.81243 0.616911 8.57644 1.208 9.16524C1.79908 9.75692 2.65989 10.1992 3.79328 10.4721L5.6641 10.9144C6.59951 11.1356 7.01843 11.4802 7.01843 12.0978C7.01843 12.8618 6.32979 13.3041 5.19639 13.3041C4.38437 13.3041 3.71868 13.0341 3.29975 12.5889C3.00421 12.2931 2.83205 11.8996 2.80623 11.4544L0 12.0719C0.0746031 12.9106 0.467704 13.6488 1.05879 14.2404C1.9942 15.2256 3.49774 15.8173 5.19639 15.8173L5.19352 15.8202ZM25.9762 15.8202C27.7983 15.8202 29.2014 15.1538 30.1626 14.2175C30.9259 13.4793 31.3936 12.6148 31.6403 11.7273L28.7595 10.7651C28.6361 11.2074 28.3894 11.6784 27.9963 12.0461C27.5285 12.4884 26.8887 12.8101 25.9762 12.8101C25.1384 12.8101 24.3522 12.4884 23.784 11.9226C23.2188 11.3309 22.8716 10.4692 22.8716 9.38353C22.8716 8.29783 23.2159 7.43617 23.784 6.84449C24.3493 6.27866 25.1126 5.98282 25.9504 5.98282C26.837 5.98282 27.4511 6.27866 27.8958 6.72098C28.266 7.0915 28.4869 7.55967 28.6332 8.02784L31.5629 7.04267C31.3419 6.18101 30.8742 5.31647 30.1827 4.60129C29.1985 3.6391 27.7696 2.94977 25.8729 2.94977C24.1255 2.94977 22.5502 3.61612 21.4168 4.74777C20.2834 5.90528 19.5948 7.50797 19.5948 9.38066C19.5948 11.2533 20.3093 12.856 21.4656 14.0135C22.599 15.1481 24.2001 15.8115 25.9705 15.8115L25.9762 15.8202ZM16.0282 15.8202C17.3079 15.8202 18.2204 15.4267 18.6135 15.082V12.4195C18.3179 12.6406 17.7268 12.9135 16.9636 12.9135C16.4213 12.9135 16.0282 12.79 15.7326 12.52C15.4859 12.273 15.3625 11.8536 15.3625 11.2878V0H12.1115V3.32603H18.6106V6.47972H12.1115V12.0748C12.1115 13.2093 12.4559 14.1198 13.0728 14.7603C13.7614 15.4496 14.7714 15.8202 16.0282 15.8202Z" fill="#4D2C87"/>
</svg>
