<svg width="37" height="37" viewBox="0 0 37 37" fill="none" xmlns="http://www.w3.org/2000/svg">
<rect width="36.1604" height="36.1604" fill="#4F008C"/>
<path d="M7.45353 25.9903C9.10341 25.9903 10.4577 25.4733 11.3444 24.6088C12.0101 23.9424 12.4032 23.0549 12.4032 22.0209C12.4032 21.0846 12.0588 20.2459 11.419 19.6054C10.7791 18.9649 9.86666 18.4967 8.71031 18.2756L6.81367 17.905C6.0246 17.7586 5.58272 17.3622 5.58272 16.8193C5.58272 16.1042 6.27136 15.613 7.37893 15.613C8.06757 15.613 8.65866 15.8342 9.05463 16.2305C9.3014 16.5005 9.47356 16.8481 9.52234 17.2416L12.2568 16.624C12.1822 15.8342 11.8149 15.1448 11.2468 14.579C10.3602 13.6915 8.9829 13.1257 7.35598 13.1257C5.85531 13.1257 4.59853 13.6197 3.73773 14.4067C3.0003 15.096 2.58138 16.0324 2.58138 17.0692C2.58138 17.9826 2.87692 18.7466 3.46801 19.3354C4.05909 19.9271 4.9199 20.3694 6.05329 20.6423L7.92411 21.0846C8.85952 21.3057 9.27844 21.6504 9.27844 22.2679C9.27844 23.0319 8.5898 23.4743 7.4564 23.4743C6.64438 23.4743 5.97869 23.2043 5.55976 22.7591C5.26422 22.4632 5.09206 22.0698 5.06623 21.6246L2.26001 22.2421C2.33461 23.0808 2.72771 23.8189 3.3188 24.4106C4.25421 25.3958 5.75775 25.9875 7.4564 25.9875L7.45353 25.9903ZM28.2362 25.9903C30.0583 25.9903 31.4614 25.324 32.4226 24.3876C33.1859 23.6495 33.6536 22.7849 33.9003 21.8974L31.0195 20.9352C30.8961 21.3776 30.6494 21.8486 30.2563 22.2162C29.7886 22.6586 29.1487 22.9802 28.2362 22.9802C27.3984 22.9802 26.6122 22.6586 26.0441 22.0927C25.4788 21.5011 25.1316 20.6394 25.1316 19.5537C25.1316 18.468 25.4759 17.6063 26.0441 17.0147C26.6093 16.4488 27.3726 16.153 28.2104 16.153C29.097 16.153 29.7111 16.4488 30.1558 16.8912C30.526 17.2617 30.7469 17.7298 30.8933 18.198L33.8229 17.2128C33.6019 16.3512 33.1342 15.4866 32.4427 14.7715C31.4585 13.8093 30.0296 13.1199 28.1329 13.1199C26.3855 13.1199 24.8102 13.7863 23.6768 14.9179C22.5434 16.0754 21.8548 17.6781 21.8548 19.5508C21.8548 21.4235 22.5693 23.0262 23.7256 24.1837C24.859 25.3182 26.4601 25.9817 28.2305 25.9817L28.2362 25.9903ZM18.2882 25.9903C19.5679 25.9903 20.4804 25.5968 20.8735 25.2522V22.5896C20.5779 22.8108 19.9869 23.0836 19.2236 23.0836C18.6813 23.0836 18.2882 22.9601 17.9927 22.6902C17.7459 22.4431 17.6225 22.0238 17.6225 21.458V10.1702H14.3715V13.4962H20.8706V16.6499H14.3715V22.245C14.3715 23.3795 14.7159 24.29 15.3328 24.9305C16.0214 25.6198 17.0314 25.9903 18.2882 25.9903Z" fill="white"/>
</svg>
