
<svg width="28" height="28" viewBox="0 0 28 28" fill="none" xmlns="http://www.w3.org/2000/svg">
  <rect width="28" height="28" fill="#1D252D"/>
  <path d="M6.17591 19.7317C7.38245 19.7317 8.37286 19.3537 9.02125 18.7214C9.50806 18.2341 9.79553 17.5851 9.79553 16.829C9.79553 16.1442 9.54373 15.5309 9.0758 15.0625C8.60788 14.5941 7.94061 14.2517 7.09498 14.09L5.70798 13.819C5.13094 13.7119 4.8078 13.4221 4.8078 13.0251C4.8078 12.5021 5.3114 12.1429 6.12135 12.1429C6.62495 12.1429 7.05721 12.3046 7.34678 12.5945C7.52723 12.7919 7.65313 13.0461 7.68881 13.3338L9.68852 12.8823C9.63396 12.3046 9.36537 11.8005 8.9499 11.3868C8.30152 10.7377 7.29432 10.3239 6.10457 10.3239C5.00714 10.3239 4.08807 10.6852 3.45857 11.2607C2.9193 11.7648 2.61294 12.4496 2.61294 13.2078C2.61294 13.8758 2.82907 14.4345 3.26133 14.8651C3.69358 15.2977 4.32308 15.6212 5.15192 15.8208L6.52004 16.1442C7.20409 16.306 7.51045 16.558 7.51045 17.0096C7.51045 17.5683 7.00685 17.8918 6.17801 17.8918C5.58418 17.8918 5.09737 17.6943 4.79101 17.3688C4.57488 17.1524 4.44898 16.8647 4.4301 16.5391L2.37793 16.9907C2.43249 17.604 2.71996 18.1438 3.15221 18.5765C3.83627 19.297 4.9358 19.7296 6.17801 19.7296L6.17591 19.7317ZM21.3741 19.7317C22.7066 19.7317 23.7326 19.2444 24.4356 18.5597C24.9937 18.0199 25.3358 17.3877 25.5162 16.7386L23.4095 16.035C23.3193 16.3585 23.1388 16.7029 22.8513 16.9718C22.5093 17.2953 22.0414 17.5305 21.3741 17.5305C20.7614 17.5305 20.1865 17.2953 19.771 16.8815C19.3576 16.4488 19.1037 15.8187 19.1037 15.0247C19.1037 14.2307 19.3555 13.6006 19.771 13.1679C20.1844 12.7541 20.7425 12.5378 21.3552 12.5378C22.0036 12.5378 22.4527 12.7541 22.7779 13.0776C23.0486 13.3486 23.2102 13.6909 23.3172 14.0333L25.4596 13.3128C25.298 12.6827 24.956 12.0505 24.4503 11.5275C23.7306 10.8238 22.6856 10.3197 21.2986 10.3197C20.0207 10.3197 18.8687 10.807 18.0399 11.6346C17.211 12.4811 16.7074 13.6531 16.7074 15.0226C16.7074 16.3921 17.2299 17.5641 18.0755 18.4106C18.9044 19.2402 20.0753 19.7254 21.3699 19.7254L21.3741 19.7317ZM14.0992 19.7317C15.0351 19.7317 15.7023 19.444 15.9898 19.1919V17.2448C15.7737 17.4066 15.3414 17.6061 14.7833 17.6061C14.3867 17.6061 14.0992 17.5158 13.8831 17.3184C13.7026 17.1377 13.6124 16.8311 13.6124 16.4173V8.1626H11.235V10.5949H15.9877V12.9012H11.235V16.9928C11.235 17.8225 11.4868 18.4883 11.9379 18.9567C12.4415 19.4608 13.1801 19.7317 14.0992 19.7317Z" fill="white"/>
</svg>
