
<svg width="32" height="32" viewBox="0 0 32 32" fill="none" xmlns="http://www.w3.org/2000/svg">
  <rect width="31.0555" height="31.0555" fill="#EB4B62"/>
  <path d="M6.40126 22.3214C7.81822 22.3214 8.98136 21.8774 9.74282 21.1349C10.3145 20.5626 10.6521 19.8004 10.6521 18.9124C10.6521 18.1082 10.3564 17.3879 9.80689 16.8379C9.25736 16.2878 8.47372 15.8857 7.48061 15.6958L5.85173 15.3775C5.17405 15.2517 4.79455 14.9113 4.79455 14.4451C4.79455 13.8309 5.38598 13.4091 6.33719 13.4091C6.92862 13.4091 7.43626 13.599 7.77633 13.9394C7.98825 14.1713 8.13611 14.4698 8.178 14.8077L10.5265 14.2774C10.4624 13.599 10.147 13.007 9.65904 12.5211C8.89757 11.7588 7.71472 11.2729 6.31747 11.2729C5.02866 11.2729 3.9493 11.6972 3.21002 12.3731C2.5767 12.9651 2.21692 13.7692 2.21692 14.6597C2.21692 15.4441 2.47074 16.1003 2.97838 16.606C3.48602 17.1141 4.2253 17.494 5.19869 17.7283L6.8054 18.1082C7.60876 18.2982 7.96854 18.5942 7.96854 19.1245C7.96854 19.7807 7.37711 20.1605 6.40372 20.1605C5.70633 20.1605 5.13462 19.9287 4.77484 19.5463C4.52102 19.2923 4.37316 18.9543 4.35098 18.572L1.94092 19.1023C2.00499 19.8226 2.3426 20.4566 2.85024 20.9647C3.65359 21.8108 4.94487 22.3189 6.40372 22.3189L6.40126 22.3214ZM24.25 22.3214C25.8148 22.3214 27.0199 21.7491 27.8454 20.945C28.5009 20.311 28.9026 19.5685 29.1145 18.8063L26.6404 17.98C26.5344 18.3598 26.3225 18.7644 25.9849 19.0801C25.5832 19.46 25.0337 19.7363 24.25 19.7363C23.5305 19.7363 22.8552 19.46 22.3673 18.974C21.8819 18.4659 21.5837 17.7259 21.5837 16.7935C21.5837 15.861 21.8794 15.121 22.3673 14.6129C22.8528 14.1269 23.5083 13.8728 24.2278 13.8728C24.9893 13.8728 25.5167 14.1269 25.8986 14.5068C26.2165 14.825 26.4063 15.2271 26.5319 15.6292L29.048 14.7831C28.8582 14.043 28.4565 13.3006 27.8627 12.6863C27.0174 11.86 25.7902 11.268 24.1613 11.268C22.6606 11.268 21.3077 11.8402 20.3343 12.8121C19.3609 13.8062 18.7695 15.1827 18.7695 16.791C18.7695 18.3993 19.3831 19.7757 20.3762 20.7698C21.3496 21.7442 22.7246 22.314 24.2451 22.314L24.25 22.3214ZM15.7064 22.3214C16.8054 22.3214 17.5891 21.9835 17.9267 21.6875V19.4008C17.6729 19.5907 17.1652 19.8251 16.5097 19.8251C16.044 19.8251 15.7064 19.719 15.4526 19.4871C15.2406 19.275 15.1347 18.9148 15.1347 18.4289V8.73462H12.3426V11.5911H17.9242V14.2996H12.3426V19.1048C12.3426 20.0791 12.6383 20.8611 13.1682 21.4112C13.7596 22.0032 14.627 22.3214 15.7064 22.3214Z" fill="#483082"/>
</svg>
